<mxfile host="app.diagrams.net" modified="2023-11-29T12:53:38.367Z" agent="Mozilla/5.0 (Windows NT 10.0; Win64; x64) AppleWebKit/537.36 (KHTML, like Gecko) Chrome/119.0.0.0 Safari/537.36" etag="3csJTdBqLkRGgJIdwzot" version="22.1.4" type="device" pages="3">
  <diagram id="R2lEEEUBdFMjLlhIrx00" name="ERD">
    <mxGraphModel dx="2456" dy="2439" grid="1" gridSize="10" guides="1" tooltips="1" connect="1" arrows="1" fold="1" page="1" pageScale="1" pageWidth="850" pageHeight="1100" math="0" shadow="0" extFonts="Permanent Marker^https://fonts.googleapis.com/css?family=Permanent+Marker">
      <root>
        <mxCell id="0" />
        <mxCell id="1" parent="0" />
        <mxCell id="DQjmhrBzkQE1UOZxMj6V-14" style="rounded=0;orthogonalLoop=1;jettySize=auto;html=1;exitX=1;exitY=0;exitDx=0;exitDy=0;endArrow=none;endFill=0;shape=link;" parent="1" source="DQjmhrBzkQE1UOZxMj6V-1" edge="1">
          <mxGeometry relative="1" as="geometry">
            <mxPoint x="320" y="104.03" as="sourcePoint" />
            <mxPoint x="410" y="104.03" as="targetPoint" />
          </mxGeometry>
        </mxCell>
        <mxCell id="DQjmhrBzkQE1UOZxMj6V-136" value="1" style="edgeLabel;html=1;align=center;verticalAlign=middle;resizable=0;points=[];" parent="DQjmhrBzkQE1UOZxMj6V-14" vertex="1" connectable="0">
          <mxGeometry x="0.9588" y="3" relative="1" as="geometry">
            <mxPoint x="-8" y="3" as="offset" />
          </mxGeometry>
        </mxCell>
        <mxCell id="DQjmhrBzkQE1UOZxMj6V-33" style="edgeStyle=orthogonalEdgeStyle;rounded=0;orthogonalLoop=1;jettySize=auto;html=1;exitX=0.5;exitY=1;exitDx=0;exitDy=0;entryX=0.5;entryY=0;entryDx=0;entryDy=0;endArrow=none;endFill=0;" parent="1" source="DQjmhrBzkQE1UOZxMj6V-1" target="DQjmhrBzkQE1UOZxMj6V-29" edge="1">
          <mxGeometry relative="1" as="geometry" />
        </mxCell>
        <mxCell id="DQjmhrBzkQE1UOZxMj6V-130" value="1" style="edgeLabel;html=1;align=center;verticalAlign=middle;resizable=0;points=[];" parent="DQjmhrBzkQE1UOZxMj6V-33" vertex="1" connectable="0">
          <mxGeometry x="-0.7333" y="1" relative="1" as="geometry">
            <mxPoint x="-1" y="51" as="offset" />
          </mxGeometry>
        </mxCell>
        <mxCell id="CqmXJxtcEUYS_WGy7513-7" style="rounded=0;orthogonalLoop=1;jettySize=auto;html=1;exitX=0.5;exitY=0;exitDx=0;exitDy=0;entryX=0;entryY=0.5;entryDx=0;entryDy=0;endArrow=none;endFill=0;" parent="1" source="GivqzS0_9tKVpD-ZFI9d-3" target="CqmXJxtcEUYS_WGy7513-6" edge="1">
          <mxGeometry relative="1" as="geometry" />
        </mxCell>
        <mxCell id="3d5jeR7D8sWp6bMufLd6-1" value="1" style="edgeLabel;html=1;align=center;verticalAlign=middle;resizable=0;points=[];fontSize=11;fontFamily=Helvetica;fontColor=default;" parent="CqmXJxtcEUYS_WGy7513-7" vertex="1" connectable="0">
          <mxGeometry x="0.8976" y="-5" relative="1" as="geometry">
            <mxPoint x="11" y="2" as="offset" />
          </mxGeometry>
        </mxCell>
        <mxCell id="GivqzS0_9tKVpD-ZFI9d-14" value="M" style="edgeLabel;html=1;align=center;verticalAlign=middle;resizable=0;points=[];fontSize=11;fontFamily=Helvetica;fontColor=default;" parent="CqmXJxtcEUYS_WGy7513-7" vertex="1" connectable="0">
          <mxGeometry x="-0.0417" y="-1" relative="1" as="geometry">
            <mxPoint as="offset" />
          </mxGeometry>
        </mxCell>
        <mxCell id="DQjmhrBzkQE1UOZxMj6V-1" value="User" style="rounded=0;whiteSpace=wrap;html=1;" parent="1" vertex="1">
          <mxGeometry x="200" y="320" width="120" height="60" as="geometry" />
        </mxCell>
        <mxCell id="DQjmhrBzkQE1UOZxMj6V-7" style="rounded=0;orthogonalLoop=1;jettySize=auto;html=1;exitX=1;exitY=0.5;exitDx=0;exitDy=0;entryX=0;entryY=0.5;entryDx=0;entryDy=0;endArrow=none;endFill=0;" parent="1" source="DQjmhrBzkQE1UOZxMj6V-2" target="DQjmhrBzkQE1UOZxMj6V-1" edge="1">
          <mxGeometry relative="1" as="geometry" />
        </mxCell>
        <mxCell id="DQjmhrBzkQE1UOZxMj6V-2" value="&lt;u&gt;user_id&lt;/u&gt;" style="ellipse;whiteSpace=wrap;html=1;" parent="1" vertex="1">
          <mxGeometry x="-40" y="160" width="100" height="70" as="geometry" />
        </mxCell>
        <mxCell id="DQjmhrBzkQE1UOZxMj6V-8" style="rounded=0;orthogonalLoop=1;jettySize=auto;html=1;exitX=1;exitY=0.5;exitDx=0;exitDy=0;entryX=0;entryY=0.5;entryDx=0;entryDy=0;endArrow=none;endFill=0;" parent="1" source="DQjmhrBzkQE1UOZxMj6V-3" target="DQjmhrBzkQE1UOZxMj6V-1" edge="1">
          <mxGeometry relative="1" as="geometry" />
        </mxCell>
        <mxCell id="DQjmhrBzkQE1UOZxMj6V-3" value="name" style="ellipse;whiteSpace=wrap;html=1;" parent="1" vertex="1">
          <mxGeometry x="-40" y="240" width="100" height="70" as="geometry" />
        </mxCell>
        <mxCell id="DQjmhrBzkQE1UOZxMj6V-9" style="rounded=0;orthogonalLoop=1;jettySize=auto;html=1;exitX=1;exitY=0.5;exitDx=0;exitDy=0;endArrow=none;endFill=0;" parent="1" source="DQjmhrBzkQE1UOZxMj6V-4" edge="1">
          <mxGeometry relative="1" as="geometry">
            <mxPoint x="200" y="349.9999999999998" as="targetPoint" />
          </mxGeometry>
        </mxCell>
        <mxCell id="DQjmhrBzkQE1UOZxMj6V-4" value="email" style="ellipse;whiteSpace=wrap;html=1;" parent="1" vertex="1">
          <mxGeometry x="-40" y="320" width="100" height="70" as="geometry" />
        </mxCell>
        <mxCell id="DQjmhrBzkQE1UOZxMj6V-10" style="rounded=0;orthogonalLoop=1;jettySize=auto;html=1;exitX=1;exitY=0.5;exitDx=0;exitDy=0;entryX=0;entryY=0.5;entryDx=0;entryDy=0;endArrow=none;endFill=0;" parent="1" source="DQjmhrBzkQE1UOZxMj6V-5" target="DQjmhrBzkQE1UOZxMj6V-1" edge="1">
          <mxGeometry relative="1" as="geometry" />
        </mxCell>
        <mxCell id="DQjmhrBzkQE1UOZxMj6V-5" value="phone_num" style="ellipse;whiteSpace=wrap;html=1;" parent="1" vertex="1">
          <mxGeometry x="-40" y="400" width="100" height="70" as="geometry" />
        </mxCell>
        <mxCell id="DQjmhrBzkQE1UOZxMj6V-34" style="edgeStyle=orthogonalEdgeStyle;rounded=0;orthogonalLoop=1;jettySize=auto;html=1;exitX=0.5;exitY=1;exitDx=0;exitDy=0;entryX=0.5;entryY=0;entryDx=0;entryDy=0;endArrow=none;endFill=0;" parent="1" target="CqmXJxtcEUYS_WGy7513-17" edge="1">
          <mxGeometry relative="1" as="geometry">
            <mxPoint x="259.89" y="530" as="sourcePoint" />
            <mxPoint x="259.89" y="620" as="targetPoint" />
          </mxGeometry>
        </mxCell>
        <mxCell id="DQjmhrBzkQE1UOZxMj6V-131" value="M" style="edgeLabel;html=1;align=center;verticalAlign=middle;resizable=0;points=[];" parent="DQjmhrBzkQE1UOZxMj6V-34" vertex="1" connectable="0">
          <mxGeometry x="-0.76" y="-1" relative="1" as="geometry">
            <mxPoint as="offset" />
          </mxGeometry>
        </mxCell>
        <mxCell id="DQjmhrBzkQE1UOZxMj6V-29" value="Have" style="shape=rhombus;double=1;perimeter=rhombusPerimeter;whiteSpace=wrap;html=1;align=center;" parent="1" vertex="1">
          <mxGeometry x="220" y="450" width="80" height="80" as="geometry" />
        </mxCell>
        <mxCell id="DQjmhrBzkQE1UOZxMj6V-62" style="edgeStyle=orthogonalEdgeStyle;rounded=0;orthogonalLoop=1;jettySize=auto;html=1;exitX=0.5;exitY=1;exitDx=0;exitDy=0;entryX=0.5;entryY=0;entryDx=0;entryDy=0;endArrow=none;endFill=0;" parent="1" source="DQjmhrBzkQE1UOZxMj6V-38" target="DQjmhrBzkQE1UOZxMj6V-39" edge="1">
          <mxGeometry relative="1" as="geometry" />
        </mxCell>
        <mxCell id="DQjmhrBzkQE1UOZxMj6V-135" value="M" style="edgeLabel;html=1;align=center;verticalAlign=middle;resizable=0;points=[];" parent="DQjmhrBzkQE1UOZxMj6V-62" vertex="1" connectable="0">
          <mxGeometry x="-0.8" relative="1" as="geometry">
            <mxPoint as="offset" />
          </mxGeometry>
        </mxCell>
        <mxCell id="DQjmhrBzkQE1UOZxMj6V-38" value="Own" style="rhombus;whiteSpace=wrap;html=1;" parent="1" vertex="1">
          <mxGeometry x="1106.01" y="454.03" width="80" height="80" as="geometry" />
        </mxCell>
        <mxCell id="DQjmhrBzkQE1UOZxMj6V-39" value="Room" style="rounded=0;whiteSpace=wrap;html=1;" parent="1" vertex="1">
          <mxGeometry x="1086.01" y="624.03" width="120" height="60" as="geometry" />
        </mxCell>
        <mxCell id="DQjmhrBzkQE1UOZxMj6V-40" value="Pay" style="rhombus;whiteSpace=wrap;html=1;" parent="1" vertex="1">
          <mxGeometry x="410" y="-131.94" width="80" height="80" as="geometry" />
        </mxCell>
        <mxCell id="DQjmhrBzkQE1UOZxMj6V-41" style="rounded=0;orthogonalLoop=1;jettySize=auto;html=1;exitX=0.5;exitY=0;exitDx=0;exitDy=0;entryX=0;entryY=0.5;entryDx=0;entryDy=0;endArrow=none;endFill=0;" parent="1" source="DQjmhrBzkQE1UOZxMj6V-1" target="DQjmhrBzkQE1UOZxMj6V-40" edge="1">
          <mxGeometry relative="1" as="geometry">
            <mxPoint x="290" y="74.03" as="sourcePoint" />
            <mxPoint x="440" y="-15.969999999999999" as="targetPoint" />
          </mxGeometry>
        </mxCell>
        <mxCell id="DQjmhrBzkQE1UOZxMj6V-138" value="1" style="edgeLabel;html=1;align=center;verticalAlign=middle;resizable=0;points=[];" parent="DQjmhrBzkQE1UOZxMj6V-41" vertex="1" connectable="0">
          <mxGeometry x="0.8383" y="4" relative="1" as="geometry">
            <mxPoint as="offset" />
          </mxGeometry>
        </mxCell>
        <mxCell id="DQjmhrBzkQE1UOZxMj6V-66" style="rounded=0;orthogonalLoop=1;jettySize=auto;html=1;exitX=0.5;exitY=0;exitDx=0;exitDy=0;entryX=0.5;entryY=1;entryDx=0;entryDy=0;endArrow=none;endFill=0;" parent="1" source="CqmXJxtcEUYS_WGy7513-33" target="CqmXJxtcEUYS_WGy7513-38" edge="1">
          <mxGeometry relative="1" as="geometry">
            <mxPoint x="656.3400000000001" y="-145.97" as="sourcePoint" />
            <mxPoint x="534" y="-225.97" as="targetPoint" />
          </mxGeometry>
        </mxCell>
        <mxCell id="DQjmhrBzkQE1UOZxMj6V-71" style="rounded=0;orthogonalLoop=1;jettySize=auto;html=1;exitX=0.5;exitY=0;exitDx=0;exitDy=0;entryX=0.5;entryY=1;entryDx=0;entryDy=0;endArrow=none;endFill=0;" parent="1" source="CqmXJxtcEUYS_WGy7513-33" target="DQjmhrBzkQE1UOZxMj6V-67" edge="1">
          <mxGeometry relative="1" as="geometry">
            <mxPoint x="656.3400000000001" y="-145.97" as="sourcePoint" />
          </mxGeometry>
        </mxCell>
        <mxCell id="DQjmhrBzkQE1UOZxMj6V-72" style="rounded=0;orthogonalLoop=1;jettySize=auto;html=1;exitX=0.5;exitY=0;exitDx=0;exitDy=0;entryX=0.5;entryY=1;entryDx=0;entryDy=0;endArrow=none;endFill=0;" parent="1" source="CqmXJxtcEUYS_WGy7513-33" target="DQjmhrBzkQE1UOZxMj6V-68" edge="1">
          <mxGeometry relative="1" as="geometry">
            <mxPoint x="656.3400000000001" y="-145.97" as="sourcePoint" />
          </mxGeometry>
        </mxCell>
        <mxCell id="DQjmhrBzkQE1UOZxMj6V-43" style="rounded=0;orthogonalLoop=1;jettySize=auto;html=1;exitX=1;exitY=0.5;exitDx=0;exitDy=0;entryX=0;entryY=0.5;entryDx=0;entryDy=0;endArrow=none;endFill=0;" parent="1" source="DQjmhrBzkQE1UOZxMj6V-40" target="CqmXJxtcEUYS_WGy7513-33" edge="1">
          <mxGeometry relative="1" as="geometry">
            <mxPoint x="97.66000000000005" y="14.030000000000001" as="sourcePoint" />
            <mxPoint x="596.3400000000001" y="-100.97" as="targetPoint" />
          </mxGeometry>
        </mxCell>
        <mxCell id="DQjmhrBzkQE1UOZxMj6V-139" value="M" style="edgeLabel;html=1;align=center;verticalAlign=middle;resizable=0;points=[];" parent="DQjmhrBzkQE1UOZxMj6V-43" vertex="1" connectable="0">
          <mxGeometry x="-0.7142" relative="1" as="geometry">
            <mxPoint x="-11" y="-10" as="offset" />
          </mxGeometry>
        </mxCell>
        <mxCell id="DQjmhrBzkQE1UOZxMj6V-53" style="rounded=0;orthogonalLoop=1;jettySize=auto;html=1;exitX=0.5;exitY=0;exitDx=0;exitDy=0;entryX=0.5;entryY=1;entryDx=0;entryDy=0;endArrow=none;endFill=0;" parent="1" source="CqmXJxtcEUYS_WGy7513-39" edge="1">
          <mxGeometry relative="1" as="geometry">
            <mxPoint x="130" y="729.9999999999995" as="sourcePoint" />
            <mxPoint x="260" y="679.9999999999995" as="targetPoint" />
          </mxGeometry>
        </mxCell>
        <mxCell id="DQjmhrBzkQE1UOZxMj6V-54" style="rounded=0;orthogonalLoop=1;jettySize=auto;html=1;exitX=0.5;exitY=0;exitDx=0;exitDy=0;entryX=0.5;entryY=1;entryDx=0;entryDy=0;endArrow=none;endFill=0;" parent="1" source="DQjmhrBzkQE1UOZxMj6V-47" edge="1">
          <mxGeometry relative="1" as="geometry">
            <mxPoint x="260" y="679.9999999999995" as="targetPoint" />
          </mxGeometry>
        </mxCell>
        <mxCell id="DQjmhrBzkQE1UOZxMj6V-47" value="content" style="ellipse;whiteSpace=wrap;html=1;" parent="1" vertex="1">
          <mxGeometry x="210" y="730" width="100" height="70" as="geometry" />
        </mxCell>
        <mxCell id="DQjmhrBzkQE1UOZxMj6V-55" style="rounded=0;orthogonalLoop=1;jettySize=auto;html=1;exitX=0.5;exitY=0;exitDx=0;exitDy=0;entryX=0.5;entryY=1;entryDx=0;entryDy=0;endArrow=none;endFill=0;" parent="1" source="DQjmhrBzkQE1UOZxMj6V-48" edge="1">
          <mxGeometry relative="1" as="geometry">
            <mxPoint x="260" y="679.9999999999995" as="targetPoint" />
          </mxGeometry>
        </mxCell>
        <mxCell id="DQjmhrBzkQE1UOZxMj6V-48" value="date" style="ellipse;whiteSpace=wrap;html=1;" parent="1" vertex="1">
          <mxGeometry x="340" y="730" width="100" height="70" as="geometry" />
        </mxCell>
        <mxCell id="DQjmhrBzkQE1UOZxMj6V-61" style="edgeStyle=orthogonalEdgeStyle;rounded=0;orthogonalLoop=1;jettySize=auto;html=1;exitX=0.5;exitY=1;exitDx=0;exitDy=0;endArrow=none;endFill=0;entryX=0.5;entryY=0;entryDx=0;entryDy=0;" parent="1" source="DQjmhrBzkQE1UOZxMj6V-50" target="DQjmhrBzkQE1UOZxMj6V-38" edge="1">
          <mxGeometry relative="1" as="geometry">
            <mxPoint x="1146.01" y="494.03" as="targetPoint" />
          </mxGeometry>
        </mxCell>
        <mxCell id="DQjmhrBzkQE1UOZxMj6V-134" value="1" style="edgeLabel;html=1;align=center;verticalAlign=middle;resizable=0;points=[];" parent="DQjmhrBzkQE1UOZxMj6V-61" vertex="1" connectable="0">
          <mxGeometry x="0.819" relative="1" as="geometry">
            <mxPoint as="offset" />
          </mxGeometry>
        </mxCell>
        <mxCell id="DQjmhrBzkQE1UOZxMj6V-78" style="rounded=0;orthogonalLoop=1;jettySize=auto;html=1;exitX=1;exitY=0.5;exitDx=0;exitDy=0;entryX=0;entryY=0.5;entryDx=0;entryDy=0;endArrow=none;endFill=0;" parent="1" source="DQjmhrBzkQE1UOZxMj6V-50" target="DQjmhrBzkQE1UOZxMj6V-74" edge="1">
          <mxGeometry relative="1" as="geometry" />
        </mxCell>
        <mxCell id="DQjmhrBzkQE1UOZxMj6V-79" style="rounded=0;orthogonalLoop=1;jettySize=auto;html=1;exitX=1;exitY=0.5;exitDx=0;exitDy=0;entryX=0;entryY=0.5;entryDx=0;entryDy=0;endArrow=none;endFill=0;" parent="1" source="DQjmhrBzkQE1UOZxMj6V-50" target="DQjmhrBzkQE1UOZxMj6V-75" edge="1">
          <mxGeometry relative="1" as="geometry" />
        </mxCell>
        <mxCell id="DQjmhrBzkQE1UOZxMj6V-80" style="rounded=0;orthogonalLoop=1;jettySize=auto;html=1;exitX=1;exitY=0.5;exitDx=0;exitDy=0;endArrow=none;endFill=0;" parent="1" source="DQjmhrBzkQE1UOZxMj6V-50" target="DQjmhrBzkQE1UOZxMj6V-76" edge="1">
          <mxGeometry relative="1" as="geometry" />
        </mxCell>
        <mxCell id="DQjmhrBzkQE1UOZxMj6V-83" style="rounded=0;orthogonalLoop=1;jettySize=auto;html=1;exitX=1;exitY=0.5;exitDx=0;exitDy=0;entryX=0;entryY=0.5;entryDx=0;entryDy=0;endArrow=none;endFill=0;" parent="1" source="DQjmhrBzkQE1UOZxMj6V-50" target="DQjmhrBzkQE1UOZxMj6V-82" edge="1">
          <mxGeometry relative="1" as="geometry" />
        </mxCell>
        <mxCell id="CuCK3SJwC6cLdP4-dTko-4" style="edgeStyle=none;shape=connector;rounded=0;orthogonalLoop=1;jettySize=auto;html=1;exitX=1;exitY=0.5;exitDx=0;exitDy=0;entryX=0;entryY=0.5;entryDx=0;entryDy=0;labelBackgroundColor=default;strokeColor=default;align=center;verticalAlign=middle;fontFamily=Helvetica;fontSize=11;fontColor=default;endArrow=none;endFill=0;" parent="1" source="DQjmhrBzkQE1UOZxMj6V-50" target="CuCK3SJwC6cLdP4-dTko-3" edge="1">
          <mxGeometry relative="1" as="geometry" />
        </mxCell>
        <mxCell id="DQjmhrBzkQE1UOZxMj6V-50" value="Host" style="rounded=0;whiteSpace=wrap;html=1;" parent="1" vertex="1">
          <mxGeometry x="1086.01" y="320" width="120" height="60" as="geometry" />
        </mxCell>
        <mxCell id="DQjmhrBzkQE1UOZxMj6V-67" value="date" style="ellipse;whiteSpace=wrap;html=1;" parent="1" vertex="1">
          <mxGeometry x="604.1599999999999" y="-285.97" width="90.33" height="60" as="geometry" />
        </mxCell>
        <mxCell id="DQjmhrBzkQE1UOZxMj6V-68" value="price" style="ellipse;whiteSpace=wrap;html=1;" parent="1" vertex="1">
          <mxGeometry x="713.0799999999999" y="-285.97" width="87.21" height="60" as="geometry" />
        </mxCell>
        <mxCell id="DQjmhrBzkQE1UOZxMj6V-74" value="&lt;u&gt;host_id&lt;/u&gt;" style="ellipse;whiteSpace=wrap;html=1;" parent="1" vertex="1">
          <mxGeometry x="1291.01" y="184.03" width="110" height="70" as="geometry" />
        </mxCell>
        <mxCell id="DQjmhrBzkQE1UOZxMj6V-75" value="name" style="ellipse;whiteSpace=wrap;html=1;" parent="1" vertex="1">
          <mxGeometry x="1296.01" y="274.03" width="100" height="70" as="geometry" />
        </mxCell>
        <mxCell id="DQjmhrBzkQE1UOZxMj6V-76" value="email" style="ellipse;whiteSpace=wrap;html=1;" parent="1" vertex="1">
          <mxGeometry x="1296.01" y="364.03" width="100" height="70" as="geometry" />
        </mxCell>
        <mxCell id="DQjmhrBzkQE1UOZxMj6V-82" value="phone_num" style="ellipse;whiteSpace=wrap;html=1;" parent="1" vertex="1">
          <mxGeometry x="1296.01" y="454.03" width="100" height="70" as="geometry" />
        </mxCell>
        <mxCell id="DQjmhrBzkQE1UOZxMj6V-91" style="rounded=0;orthogonalLoop=1;jettySize=auto;html=1;exitX=0.5;exitY=0;exitDx=0;exitDy=0;entryX=0.5;entryY=1;entryDx=0;entryDy=0;endArrow=none;endFill=0;" parent="1" source="DQjmhrBzkQE1UOZxMj6V-90" target="DQjmhrBzkQE1UOZxMj6V-39" edge="1">
          <mxGeometry relative="1" as="geometry" />
        </mxCell>
        <mxCell id="DQjmhrBzkQE1UOZxMj6V-90" value="&lt;u&gt;room_id&lt;/u&gt;" style="ellipse;whiteSpace=wrap;html=1;" parent="1" vertex="1">
          <mxGeometry x="907.21" y="735" width="110" height="70" as="geometry" />
        </mxCell>
        <mxCell id="DQjmhrBzkQE1UOZxMj6V-103" style="rounded=0;orthogonalLoop=1;jettySize=auto;html=1;exitX=0.5;exitY=0;exitDx=0;exitDy=0;entryX=0.5;entryY=1;entryDx=0;entryDy=0;endArrow=none;endFill=0;" parent="1" source="DQjmhrBzkQE1UOZxMj6V-97" target="CqmXJxtcEUYS_WGy7513-14" edge="1">
          <mxGeometry relative="1" as="geometry">
            <mxPoint x="650" y="144.03" as="targetPoint" />
          </mxGeometry>
        </mxCell>
        <mxCell id="DQjmhrBzkQE1UOZxMj6V-97" value="contract_date" style="ellipse;whiteSpace=wrap;html=1;" parent="1" vertex="1">
          <mxGeometry x="576.34" y="214.03" width="80" height="60" as="geometry" />
        </mxCell>
        <mxCell id="DQjmhrBzkQE1UOZxMj6V-104" style="rounded=0;orthogonalLoop=1;jettySize=auto;html=1;exitX=0.5;exitY=0;exitDx=0;exitDy=0;entryX=0.5;entryY=1;entryDx=0;entryDy=0;endArrow=none;endFill=0;" parent="1" source="DQjmhrBzkQE1UOZxMj6V-98" target="CqmXJxtcEUYS_WGy7513-14" edge="1">
          <mxGeometry relative="1" as="geometry">
            <mxPoint x="650" y="144.03" as="targetPoint" />
          </mxGeometry>
        </mxCell>
        <mxCell id="DQjmhrBzkQE1UOZxMj6V-98" value="price" style="ellipse;whiteSpace=wrap;html=1;" parent="1" vertex="1">
          <mxGeometry x="666.34" y="214.03" width="80" height="60" as="geometry" />
        </mxCell>
        <mxCell id="DQjmhrBzkQE1UOZxMj6V-105" style="rounded=0;orthogonalLoop=1;jettySize=auto;html=1;exitX=0.5;exitY=0;exitDx=0;exitDy=0;entryX=0.5;entryY=1;entryDx=0;entryDy=0;endArrow=none;endFill=0;" parent="1" source="DQjmhrBzkQE1UOZxMj6V-99" target="CqmXJxtcEUYS_WGy7513-14" edge="1">
          <mxGeometry relative="1" as="geometry">
            <mxPoint x="650" y="144.03" as="targetPoint" />
          </mxGeometry>
        </mxCell>
        <mxCell id="DQjmhrBzkQE1UOZxMj6V-99" value="duration" style="ellipse;whiteSpace=wrap;html=1;" parent="1" vertex="1">
          <mxGeometry x="756.34" y="214.03" width="80" height="60" as="geometry" />
        </mxCell>
        <mxCell id="DQjmhrBzkQE1UOZxMj6V-110" style="rounded=0;orthogonalLoop=1;jettySize=auto;html=1;exitX=0.5;exitY=0;exitDx=0;exitDy=0;entryX=0.5;entryY=1;entryDx=0;entryDy=0;endArrow=none;endFill=0;" parent="1" source="DQjmhrBzkQE1UOZxMj6V-108" target="DQjmhrBzkQE1UOZxMj6V-39" edge="1">
          <mxGeometry relative="1" as="geometry" />
        </mxCell>
        <mxCell id="DQjmhrBzkQE1UOZxMj6V-108" value="name" style="ellipse;whiteSpace=wrap;html=1;" parent="1" vertex="1">
          <mxGeometry x="1040" y="730" width="100" height="70" as="geometry" />
        </mxCell>
        <mxCell id="DQjmhrBzkQE1UOZxMj6V-111" style="rounded=0;orthogonalLoop=1;jettySize=auto;html=1;exitX=0.5;exitY=0;exitDx=0;exitDy=0;entryX=0.5;entryY=1;entryDx=0;entryDy=0;endArrow=none;endFill=0;" parent="1" source="DQjmhrBzkQE1UOZxMj6V-109" target="DQjmhrBzkQE1UOZxMj6V-39" edge="1">
          <mxGeometry relative="1" as="geometry" />
        </mxCell>
        <mxCell id="DQjmhrBzkQE1UOZxMj6V-109" value="location" style="ellipse;whiteSpace=wrap;html=1;" parent="1" vertex="1">
          <mxGeometry x="1160" y="730" width="100" height="70" as="geometry" />
        </mxCell>
        <mxCell id="CqmXJxtcEUYS_WGy7513-8" style="rounded=0;orthogonalLoop=1;jettySize=auto;html=1;exitX=1;exitY=0.5;exitDx=0;exitDy=0;entryX=0;entryY=0.25;entryDx=0;entryDy=0;endArrow=none;endFill=0;" parent="1" source="GivqzS0_9tKVpD-ZFI9d-6" target="DQjmhrBzkQE1UOZxMj6V-50" edge="1">
          <mxGeometry relative="1" as="geometry" />
        </mxCell>
        <mxCell id="GivqzS0_9tKVpD-ZFI9d-16" value="1" style="edgeLabel;html=1;align=center;verticalAlign=middle;resizable=0;points=[];fontSize=11;fontFamily=Helvetica;fontColor=default;" parent="CqmXJxtcEUYS_WGy7513-8" vertex="1" connectable="0">
          <mxGeometry x="-0.8448" y="-4" relative="1" as="geometry">
            <mxPoint as="offset" />
          </mxGeometry>
        </mxCell>
        <mxCell id="CqmXJxtcEUYS_WGy7513-10" style="rounded=0;orthogonalLoop=1;jettySize=auto;html=1;exitX=0.5;exitY=1;exitDx=0;exitDy=0;entryX=0.5;entryY=1;entryDx=0;entryDy=0;endArrow=none;endFill=0;" parent="1" source="CqmXJxtcEUYS_WGy7513-6" target="CqmXJxtcEUYS_WGy7513-9" edge="1">
          <mxGeometry relative="1" as="geometry" />
        </mxCell>
        <mxCell id="CqmXJxtcEUYS_WGy7513-13" style="rounded=0;orthogonalLoop=1;jettySize=auto;html=1;exitX=0.5;exitY=1;exitDx=0;exitDy=0;entryX=0.5;entryY=1;entryDx=0;entryDy=0;endArrow=none;endFill=0;" parent="1" source="CqmXJxtcEUYS_WGy7513-6" target="CqmXJxtcEUYS_WGy7513-11" edge="1">
          <mxGeometry relative="1" as="geometry" />
        </mxCell>
        <mxCell id="CqmXJxtcEUYS_WGy7513-6" value="Message" style="rounded=0;whiteSpace=wrap;html=1;" parent="1" vertex="1">
          <mxGeometry x="610" y="410" width="140" height="80" as="geometry" />
        </mxCell>
        <mxCell id="CqmXJxtcEUYS_WGy7513-9" value="message_time" style="ellipse;whiteSpace=wrap;html=1;" parent="1" vertex="1">
          <mxGeometry x="639.9999999999999" y="534.03" width="87.21" height="60" as="geometry" />
        </mxCell>
        <mxCell id="CqmXJxtcEUYS_WGy7513-11" value="content" style="ellipse;whiteSpace=wrap;html=1;" parent="1" vertex="1">
          <mxGeometry x="756.34" y="539.03" width="100" height="55" as="geometry" />
        </mxCell>
        <mxCell id="CqmXJxtcEUYS_WGy7513-28" style="edgeStyle=orthogonalEdgeStyle;rounded=0;orthogonalLoop=1;jettySize=auto;html=1;exitX=1;exitY=0.5;exitDx=0;exitDy=0;entryX=0;entryY=0.5;entryDx=0;entryDy=0;shape=link;" parent="1" source="CqmXJxtcEUYS_WGy7513-14" target="CqmXJxtcEUYS_WGy7513-24" edge="1">
          <mxGeometry relative="1" as="geometry" />
        </mxCell>
        <mxCell id="CqmXJxtcEUYS_WGy7513-32" value="N" style="edgeLabel;html=1;align=center;verticalAlign=middle;resizable=0;points=[];" parent="CqmXJxtcEUYS_WGy7513-28" vertex="1" connectable="0">
          <mxGeometry x="0.8074" y="1" relative="1" as="geometry">
            <mxPoint as="offset" />
          </mxGeometry>
        </mxCell>
        <mxCell id="CqmXJxtcEUYS_WGy7513-36" style="edgeStyle=orthogonalEdgeStyle;rounded=0;orthogonalLoop=1;jettySize=auto;html=1;exitX=0.5;exitY=0;exitDx=0;exitDy=0;entryX=0.5;entryY=1;entryDx=0;entryDy=0;endArrow=none;endFill=0;" parent="1" source="CqmXJxtcEUYS_WGy7513-14" target="CqmXJxtcEUYS_WGy7513-35" edge="1">
          <mxGeometry relative="1" as="geometry">
            <Array as="points">
              <mxPoint x="653" y="74.03" />
            </Array>
          </mxGeometry>
        </mxCell>
        <mxCell id="CqmXJxtcEUYS_WGy7513-40" value="1" style="edgeLabel;html=1;align=center;verticalAlign=middle;resizable=0;points=[];" parent="CqmXJxtcEUYS_WGy7513-36" vertex="1" connectable="0">
          <mxGeometry x="0.7499" relative="1" as="geometry">
            <mxPoint as="offset" />
          </mxGeometry>
        </mxCell>
        <mxCell id="CqmXJxtcEUYS_WGy7513-14" value="Contract" style="rounded=0;whiteSpace=wrap;html=1;" parent="1" vertex="1">
          <mxGeometry x="600" y="74.03" width="120" height="60" as="geometry" />
        </mxCell>
        <mxCell id="CqmXJxtcEUYS_WGy7513-16" style="rounded=0;orthogonalLoop=1;jettySize=auto;html=1;exitX=0.5;exitY=0;exitDx=0;exitDy=0;entryX=0.5;entryY=1;entryDx=0;entryDy=0;endArrow=none;endFill=0;" parent="1" target="CqmXJxtcEUYS_WGy7513-14" edge="1">
          <mxGeometry relative="1" as="geometry">
            <mxPoint x="520" y="214.02999999999975" as="sourcePoint" />
          </mxGeometry>
        </mxCell>
        <mxCell id="CqmXJxtcEUYS_WGy7513-20" style="edgeStyle=orthogonalEdgeStyle;rounded=0;orthogonalLoop=1;jettySize=auto;html=1;exitX=1;exitY=0.5;exitDx=0;exitDy=0;endArrow=none;endFill=0;entryX=0;entryY=0.5;entryDx=0;entryDy=0;" parent="1" source="CqmXJxtcEUYS_WGy7513-17" target="CqmXJxtcEUYS_WGy7513-19" edge="1">
          <mxGeometry relative="1" as="geometry">
            <mxPoint x="546" y="655" as="targetPoint" />
          </mxGeometry>
        </mxCell>
        <mxCell id="CqmXJxtcEUYS_WGy7513-21" value="M" style="edgeLabel;html=1;align=center;verticalAlign=middle;resizable=0;points=[];" parent="CqmXJxtcEUYS_WGy7513-20" vertex="1" connectable="0">
          <mxGeometry x="0.9007" y="-2" relative="1" as="geometry">
            <mxPoint x="-5" y="-2" as="offset" />
          </mxGeometry>
        </mxCell>
        <mxCell id="CqmXJxtcEUYS_WGy7513-17" value="Review" style="shape=ext;margin=3;double=1;whiteSpace=wrap;html=1;align=center;" parent="1" vertex="1">
          <mxGeometry x="200" y="630" width="120" height="50" as="geometry" />
        </mxCell>
        <mxCell id="CqmXJxtcEUYS_WGy7513-42" style="edgeStyle=orthogonalEdgeStyle;rounded=0;orthogonalLoop=1;jettySize=auto;html=1;exitX=1;exitY=0.5;exitDx=0;exitDy=0;entryX=0;entryY=0.5;entryDx=0;entryDy=0;endArrow=none;endFill=0;" parent="1" source="CqmXJxtcEUYS_WGy7513-19" target="DQjmhrBzkQE1UOZxMj6V-39" edge="1">
          <mxGeometry relative="1" as="geometry" />
        </mxCell>
        <mxCell id="CqmXJxtcEUYS_WGy7513-43" value="1" style="edgeLabel;html=1;align=center;verticalAlign=middle;resizable=0;points=[];" parent="CqmXJxtcEUYS_WGy7513-42" vertex="1" connectable="0">
          <mxGeometry x="-0.9097" relative="1" as="geometry">
            <mxPoint x="-1" as="offset" />
          </mxGeometry>
        </mxCell>
        <mxCell id="CqmXJxtcEUYS_WGy7513-19" value="Have" style="shape=rhombus;double=1;perimeter=rhombusPerimeter;whiteSpace=wrap;html=1;align=center;" parent="1" vertex="1">
          <mxGeometry x="640" y="625" width="120" height="60" as="geometry" />
        </mxCell>
        <mxCell id="CqmXJxtcEUYS_WGy7513-27" style="edgeStyle=orthogonalEdgeStyle;rounded=0;orthogonalLoop=1;jettySize=auto;html=1;exitX=1;exitY=0.5;exitDx=0;exitDy=0;entryX=0;entryY=0.5;entryDx=0;entryDy=0;shape=link;" parent="1" source="CqmXJxtcEUYS_WGy7513-22" target="CqmXJxtcEUYS_WGy7513-14" edge="1">
          <mxGeometry relative="1" as="geometry" />
        </mxCell>
        <mxCell id="CqmXJxtcEUYS_WGy7513-30" value="M" style="edgeLabel;html=1;align=center;verticalAlign=middle;resizable=0;points=[];" parent="CqmXJxtcEUYS_WGy7513-27" vertex="1" connectable="0">
          <mxGeometry x="-0.8136" relative="1" as="geometry">
            <mxPoint as="offset" />
          </mxGeometry>
        </mxCell>
        <mxCell id="iYxIZl3WT4Aviw9_nd6l-2" style="edgeStyle=orthogonalEdgeStyle;rounded=0;orthogonalLoop=1;jettySize=auto;html=1;exitX=0.5;exitY=0;exitDx=0;exitDy=0;entryX=0.5;entryY=1;entryDx=0;entryDy=0;endArrow=none;endFill=0;" parent="1" source="CqmXJxtcEUYS_WGy7513-22" target="iYxIZl3WT4Aviw9_nd6l-1" edge="1">
          <mxGeometry relative="1" as="geometry" />
        </mxCell>
        <mxCell id="CqmXJxtcEUYS_WGy7513-22" value="Start_Contract" style="shape=rhombus;perimeter=rhombusPerimeter;whiteSpace=wrap;html=1;align=center;" parent="1" vertex="1">
          <mxGeometry x="410" y="74.03" width="120" height="60" as="geometry" />
        </mxCell>
        <mxCell id="CqmXJxtcEUYS_WGy7513-29" style="rounded=0;orthogonalLoop=1;jettySize=auto;html=1;exitX=1;exitY=0.5;exitDx=0;exitDy=0;entryX=0;entryY=0;entryDx=0;entryDy=0;shape=link;" parent="1" source="CqmXJxtcEUYS_WGy7513-24" target="DQjmhrBzkQE1UOZxMj6V-39" edge="1">
          <mxGeometry relative="1" as="geometry">
            <mxPoint x="930.0000000000001" y="104.03" as="sourcePoint" />
            <mxPoint x="1086.0100000000002" y="104.03" as="targetPoint" />
          </mxGeometry>
        </mxCell>
        <mxCell id="CqmXJxtcEUYS_WGy7513-31" value="1" style="edgeLabel;html=1;align=center;verticalAlign=middle;resizable=0;points=[];" parent="CqmXJxtcEUYS_WGy7513-29" vertex="1" connectable="0">
          <mxGeometry x="-0.5774" y="1" relative="1" as="geometry">
            <mxPoint x="-30" y="-103" as="offset" />
          </mxGeometry>
        </mxCell>
        <mxCell id="iYxIZl3WT4Aviw9_nd6l-4" style="edgeStyle=orthogonalEdgeStyle;rounded=0;orthogonalLoop=1;jettySize=auto;html=1;exitX=0.5;exitY=0;exitDx=0;exitDy=0;entryX=0.5;entryY=1;entryDx=0;entryDy=0;endArrow=none;endFill=0;" parent="1" source="CqmXJxtcEUYS_WGy7513-24" target="iYxIZl3WT4Aviw9_nd6l-3" edge="1">
          <mxGeometry relative="1" as="geometry" />
        </mxCell>
        <mxCell id="CqmXJxtcEUYS_WGy7513-24" value="End_Contract" style="shape=rhombus;perimeter=rhombusPerimeter;whiteSpace=wrap;html=1;align=center;" parent="1" vertex="1">
          <mxGeometry x="829.9999999999999" y="74.03" width="120" height="60" as="geometry" />
        </mxCell>
        <mxCell id="CqmXJxtcEUYS_WGy7513-33" value="Bill" style="shape=ext;margin=3;double=1;whiteSpace=wrap;html=1;align=center;" parent="1" vertex="1">
          <mxGeometry x="595.16" y="-155.97" width="115.84" height="60" as="geometry" />
        </mxCell>
        <mxCell id="CqmXJxtcEUYS_WGy7513-37" style="edgeStyle=orthogonalEdgeStyle;rounded=0;orthogonalLoop=1;jettySize=auto;html=1;exitX=0.5;exitY=0;exitDx=0;exitDy=0;entryX=0.5;entryY=1;entryDx=0;entryDy=0;endArrow=none;endFill=0;" parent="1" source="CqmXJxtcEUYS_WGy7513-35" target="CqmXJxtcEUYS_WGy7513-33" edge="1">
          <mxGeometry relative="1" as="geometry" />
        </mxCell>
        <mxCell id="CqmXJxtcEUYS_WGy7513-41" value="1" style="edgeLabel;html=1;align=center;verticalAlign=middle;resizable=0;points=[];" parent="CqmXJxtcEUYS_WGy7513-37" vertex="1" connectable="0">
          <mxGeometry x="-0.6621" relative="1" as="geometry">
            <mxPoint as="offset" />
          </mxGeometry>
        </mxCell>
        <mxCell id="CqmXJxtcEUYS_WGy7513-35" value="Have" style="shape=rhombus;double=1;perimeter=rhombusPerimeter;whiteSpace=wrap;html=1;align=center;" parent="1" vertex="1">
          <mxGeometry x="593.08" y="-51.940000000000026" width="120" height="60" as="geometry" />
        </mxCell>
        <mxCell id="CqmXJxtcEUYS_WGy7513-38" value="&lt;span style=&quot;border-bottom: 1px dotted&quot;&gt;bill_id&lt;/span&gt;" style="ellipse;whiteSpace=wrap;html=1;align=center;" parent="1" vertex="1">
          <mxGeometry x="483.66999999999996" y="-280.97" width="100" height="50" as="geometry" />
        </mxCell>
        <mxCell id="CqmXJxtcEUYS_WGy7513-39" value="&lt;span style=&quot;border-bottom: 1px dotted&quot;&gt;review_id&lt;/span&gt;" style="ellipse;whiteSpace=wrap;html=1;align=center;" parent="1" vertex="1">
          <mxGeometry x="70" y="735" width="100" height="60" as="geometry" />
        </mxCell>
        <mxCell id="iYxIZl3WT4Aviw9_nd6l-1" value="start_time" style="ellipse;whiteSpace=wrap;html=1;" parent="1" vertex="1">
          <mxGeometry x="420" y="-20" width="100" height="55" as="geometry" />
        </mxCell>
        <mxCell id="iYxIZl3WT4Aviw9_nd6l-3" value="end_time" style="ellipse;whiteSpace=wrap;html=1;" parent="1" vertex="1">
          <mxGeometry x="840" y="-30" width="100" height="55" as="geometry" />
        </mxCell>
        <mxCell id="dSxRWF8hgksY4cqJ0Wlc-1" value="&lt;u&gt;contract_id&lt;/u&gt;" style="ellipse;whiteSpace=wrap;html=1;" parent="1" vertex="1">
          <mxGeometry x="480" y="214.03" width="80" height="60" as="geometry" />
        </mxCell>
        <mxCell id="2xMOEUTXBug2pKJgvUnM-2" style="rounded=0;orthogonalLoop=1;jettySize=auto;html=1;exitX=0.5;exitY=1;exitDx=0;exitDy=0;endArrow=none;endFill=0;" parent="1" source="2xMOEUTXBug2pKJgvUnM-1" target="CqmXJxtcEUYS_WGy7513-33" edge="1">
          <mxGeometry relative="1" as="geometry" />
        </mxCell>
        <mxCell id="2xMOEUTXBug2pKJgvUnM-1" value="status" style="ellipse;whiteSpace=wrap;html=1;" parent="1" vertex="1">
          <mxGeometry x="819.9999999999999" y="-285.97" width="87.21" height="60" as="geometry" />
        </mxCell>
        <mxCell id="GivqzS0_9tKVpD-ZFI9d-1" value="pay_method" style="ellipse;whiteSpace=wrap;html=1;" parent="1" vertex="1">
          <mxGeometry x="280.00000000000006" y="-260" width="80" height="60" as="geometry" />
        </mxCell>
        <mxCell id="GivqzS0_9tKVpD-ZFI9d-2" style="edgeStyle=none;shape=connector;rounded=0;orthogonalLoop=1;jettySize=auto;html=1;exitX=1;exitY=1;exitDx=0;exitDy=0;entryX=0.378;entryY=0.118;entryDx=0;entryDy=0;entryPerimeter=0;labelBackgroundColor=default;strokeColor=default;align=center;verticalAlign=middle;fontFamily=Helvetica;fontSize=11;fontColor=default;endArrow=none;endFill=0;" parent="1" source="GivqzS0_9tKVpD-ZFI9d-1" target="DQjmhrBzkQE1UOZxMj6V-40" edge="1">
          <mxGeometry relative="1" as="geometry" />
        </mxCell>
        <mxCell id="GivqzS0_9tKVpD-ZFI9d-4" value="" style="rounded=0;orthogonalLoop=1;jettySize=auto;html=1;exitX=1;exitY=0.75;exitDx=0;exitDy=0;entryX=0;entryY=0.5;entryDx=0;entryDy=0;endArrow=none;endFill=0;" parent="1" source="DQjmhrBzkQE1UOZxMj6V-1" target="GivqzS0_9tKVpD-ZFI9d-3" edge="1">
          <mxGeometry relative="1" as="geometry">
            <mxPoint x="260" y="320" as="sourcePoint" />
            <mxPoint x="610" y="450" as="targetPoint" />
          </mxGeometry>
        </mxCell>
        <mxCell id="GivqzS0_9tKVpD-ZFI9d-13" value="1" style="edgeLabel;html=1;align=center;verticalAlign=middle;resizable=0;points=[];fontSize=11;fontFamily=Helvetica;fontColor=default;" parent="GivqzS0_9tKVpD-ZFI9d-4" vertex="1" connectable="0">
          <mxGeometry x="0.7795" y="-1" relative="1" as="geometry">
            <mxPoint as="offset" />
          </mxGeometry>
        </mxCell>
        <mxCell id="GivqzS0_9tKVpD-ZFI9d-3" value="Send" style="shape=rhombus;perimeter=rhombusPerimeter;whiteSpace=wrap;html=1;align=center;" parent="1" vertex="1">
          <mxGeometry x="400" y="364.03" width="120" height="60" as="geometry" />
        </mxCell>
        <mxCell id="GivqzS0_9tKVpD-ZFI9d-7" value="" style="rounded=0;orthogonalLoop=1;jettySize=auto;html=1;exitX=1;exitY=0.5;exitDx=0;exitDy=0;entryX=0;entryY=0.25;entryDx=0;entryDy=0;endArrow=none;endFill=0;" parent="1" source="CqmXJxtcEUYS_WGy7513-6" target="GivqzS0_9tKVpD-ZFI9d-6" edge="1">
          <mxGeometry relative="1" as="geometry">
            <mxPoint x="750" y="450" as="sourcePoint" />
            <mxPoint x="1086" y="335" as="targetPoint" />
          </mxGeometry>
        </mxCell>
        <mxCell id="GivqzS0_9tKVpD-ZFI9d-15" value="N" style="edgeLabel;html=1;align=center;verticalAlign=middle;resizable=0;points=[];fontSize=11;fontFamily=Helvetica;fontColor=default;" parent="GivqzS0_9tKVpD-ZFI9d-7" vertex="1" connectable="0">
          <mxGeometry x="-0.8306" y="-1" relative="1" as="geometry">
            <mxPoint x="80" y="-46" as="offset" />
          </mxGeometry>
        </mxCell>
        <mxCell id="GivqzS0_9tKVpD-ZFI9d-6" value="Receive" style="shape=rhombus;perimeter=rhombusPerimeter;whiteSpace=wrap;html=1;align=center;" parent="1" vertex="1">
          <mxGeometry x="846.01" y="369.03" width="120" height="60" as="geometry" />
        </mxCell>
        <mxCell id="GivqzS0_9tKVpD-ZFI9d-18" style="edgeStyle=none;shape=connector;rounded=0;orthogonalLoop=1;jettySize=auto;html=1;exitX=0.5;exitY=0;exitDx=0;exitDy=0;entryX=0.5;entryY=1;entryDx=0;entryDy=0;labelBackgroundColor=default;strokeColor=default;align=center;verticalAlign=middle;fontFamily=Helvetica;fontSize=11;fontColor=default;endArrow=none;endFill=0;" parent="1" source="GivqzS0_9tKVpD-ZFI9d-17" target="CqmXJxtcEUYS_WGy7513-6" edge="1">
          <mxGeometry relative="1" as="geometry" />
        </mxCell>
        <mxCell id="GivqzS0_9tKVpD-ZFI9d-17" value="&lt;u&gt;message_id&lt;/u&gt;" style="ellipse;whiteSpace=wrap;html=1;" parent="1" vertex="1">
          <mxGeometry x="516.9499999999998" y="534.03" width="87.21" height="60" as="geometry" />
        </mxCell>
        <mxCell id="gCd_aeIRpYAsaoGQkLGZ-1" value="" style="endArrow=none;html=1;rounded=0;exitX=0.5;exitY=1;exitDx=0;exitDy=0;entryX=0.5;entryY=0;entryDx=0;entryDy=0;" parent="1" source="DQjmhrBzkQE1UOZxMj6V-39" edge="1">
          <mxGeometry width="50" height="50" relative="1" as="geometry">
            <mxPoint x="1390" y="674.03" as="sourcePoint" />
            <mxPoint x="1346.0100000000002" y="730" as="targetPoint" />
          </mxGeometry>
        </mxCell>
        <mxCell id="byjL2pwSb-R1ZNsJhJDJ-5" value="room_size" style="ellipse;whiteSpace=wrap;html=1;" parent="1" vertex="1">
          <mxGeometry x="1290" y="730" width="100" height="70" as="geometry" />
        </mxCell>
        <mxCell id="byjL2pwSb-R1ZNsJhJDJ-6" value="room_price" style="ellipse;whiteSpace=wrap;html=1;" parent="1" vertex="1">
          <mxGeometry x="1410" y="730" width="100" height="70" as="geometry" />
        </mxCell>
        <mxCell id="byjL2pwSb-R1ZNsJhJDJ-7" value="" style="endArrow=none;html=1;rounded=0;entryX=0.5;entryY=0;entryDx=0;entryDy=0;exitX=0.5;exitY=1;exitDx=0;exitDy=0;" parent="1" source="DQjmhrBzkQE1UOZxMj6V-39" edge="1">
          <mxGeometry width="50" height="50" relative="1" as="geometry">
            <mxPoint x="1150" y="690" as="sourcePoint" />
            <mxPoint x="1460.0100000000002" y="726" as="targetPoint" />
          </mxGeometry>
        </mxCell>
        <mxCell id="byjL2pwSb-R1ZNsJhJDJ-8" value="room_shape" style="ellipse;whiteSpace=wrap;html=1;" parent="1" vertex="1">
          <mxGeometry x="1540" y="730" width="100" height="70" as="geometry" />
        </mxCell>
        <mxCell id="byjL2pwSb-R1ZNsJhJDJ-9" value="" style="endArrow=none;html=1;rounded=0;entryX=0.5;entryY=0;entryDx=0;entryDy=0;exitX=0.75;exitY=1;exitDx=0;exitDy=0;" parent="1" source="DQjmhrBzkQE1UOZxMj6V-39" edge="1">
          <mxGeometry width="50" height="50" relative="1" as="geometry">
            <mxPoint x="1150" y="690" as="sourcePoint" />
            <mxPoint x="1600.0100000000002" y="730" as="targetPoint" />
          </mxGeometry>
        </mxCell>
        <mxCell id="CuCK3SJwC6cLdP4-dTko-2" style="edgeStyle=none;shape=connector;rounded=0;orthogonalLoop=1;jettySize=auto;html=1;exitX=1;exitY=0.5;exitDx=0;exitDy=0;entryX=0;entryY=0.5;entryDx=0;entryDy=0;labelBackgroundColor=default;strokeColor=default;align=center;verticalAlign=middle;fontFamily=Helvetica;fontSize=11;fontColor=default;endArrow=none;endFill=0;" parent="1" source="CuCK3SJwC6cLdP4-dTko-1" target="DQjmhrBzkQE1UOZxMj6V-1" edge="1">
          <mxGeometry relative="1" as="geometry" />
        </mxCell>
        <mxCell id="CuCK3SJwC6cLdP4-dTko-1" value="password" style="ellipse;whiteSpace=wrap;html=1;" parent="1" vertex="1">
          <mxGeometry x="-40" y="490" width="100" height="70" as="geometry" />
        </mxCell>
        <mxCell id="CuCK3SJwC6cLdP4-dTko-3" value="password" style="ellipse;whiteSpace=wrap;html=1;" parent="1" vertex="1">
          <mxGeometry x="1301.01" y="539.03" width="100" height="70" as="geometry" />
        </mxCell>
      </root>
    </mxGraphModel>
  </diagram>
  <diagram id="wwtBPXmDjklY9f0hoWT0" name="relation">
    <mxGraphModel dx="2433" dy="1339" grid="1" gridSize="10" guides="1" tooltips="1" connect="1" arrows="1" fold="1" page="1" pageScale="1" pageWidth="827" pageHeight="1169" math="0" shadow="0">
      <root>
        <mxCell id="0" />
        <mxCell id="1" parent="0" />
        <mxCell id="gaqO-L7Gw0ht_7JBLSyh-16" value="" style="group" parent="1" vertex="1" connectable="0">
          <mxGeometry x="80" y="130" width="320" height="70" as="geometry" />
        </mxCell>
        <mxCell id="gaqO-L7Gw0ht_7JBLSyh-1" value="User" style="text;html=1;align=center;verticalAlign=middle;resizable=1;points=[];autosize=1;strokeColor=none;fillColor=none;movable=1;rotatable=1;deletable=1;editable=1;locked=0;connectable=1;" parent="gaqO-L7Gw0ht_7JBLSyh-16" vertex="1">
          <mxGeometry width="50" height="30" as="geometry" />
        </mxCell>
        <mxCell id="gaqO-L7Gw0ht_7JBLSyh-2" value="" style="shape=table;startSize=0;container=1;collapsible=0;childLayout=tableLayout;movable=1;resizable=1;rotatable=1;deletable=1;editable=1;locked=0;connectable=1;" parent="gaqO-L7Gw0ht_7JBLSyh-16" vertex="1">
          <mxGeometry y="30" width="398" height="40" as="geometry" />
        </mxCell>
        <mxCell id="gaqO-L7Gw0ht_7JBLSyh-3" value="" style="shape=tableRow;horizontal=0;startSize=0;swimlaneHead=0;swimlaneBody=0;strokeColor=inherit;top=0;left=0;bottom=0;right=0;collapsible=0;dropTarget=0;fillColor=none;points=[[0,0.5],[1,0.5]];portConstraint=eastwest;movable=1;resizable=1;rotatable=1;deletable=1;editable=1;locked=0;connectable=1;" parent="gaqO-L7Gw0ht_7JBLSyh-2" vertex="1">
          <mxGeometry width="398" height="40" as="geometry" />
        </mxCell>
        <mxCell id="gaqO-L7Gw0ht_7JBLSyh-4" value="&lt;u&gt;user_id&lt;/u&gt;" style="shape=partialRectangle;html=1;whiteSpace=wrap;connectable=1;strokeColor=inherit;overflow=hidden;fillColor=none;top=0;left=0;bottom=0;right=0;pointerEvents=1;movable=1;resizable=1;rotatable=1;deletable=1;editable=1;locked=0;" parent="gaqO-L7Gw0ht_7JBLSyh-3" vertex="1">
          <mxGeometry width="82" height="40" as="geometry">
            <mxRectangle width="82" height="40" as="alternateBounds" />
          </mxGeometry>
        </mxCell>
        <mxCell id="gaqO-L7Gw0ht_7JBLSyh-5" value="password" style="shape=partialRectangle;html=1;whiteSpace=wrap;connectable=1;strokeColor=inherit;overflow=hidden;fillColor=none;top=0;left=0;bottom=0;right=0;pointerEvents=1;movable=1;resizable=1;rotatable=1;deletable=1;editable=1;locked=0;" parent="gaqO-L7Gw0ht_7JBLSyh-3" vertex="1">
          <mxGeometry x="82" width="78" height="40" as="geometry">
            <mxRectangle width="78" height="40" as="alternateBounds" />
          </mxGeometry>
        </mxCell>
        <mxCell id="gaqO-L7Gw0ht_7JBLSyh-6" value="name" style="shape=partialRectangle;html=1;whiteSpace=wrap;connectable=1;strokeColor=inherit;overflow=hidden;fillColor=none;top=0;left=0;bottom=0;right=0;pointerEvents=1;movable=1;resizable=1;rotatable=1;deletable=1;editable=1;locked=0;" parent="gaqO-L7Gw0ht_7JBLSyh-3" vertex="1">
          <mxGeometry x="160" width="82" height="40" as="geometry">
            <mxRectangle width="82" height="40" as="alternateBounds" />
          </mxGeometry>
        </mxCell>
        <mxCell id="gaqO-L7Gw0ht_7JBLSyh-7" value="email" style="shape=partialRectangle;html=1;whiteSpace=wrap;connectable=1;strokeColor=inherit;overflow=hidden;fillColor=none;top=0;left=0;bottom=0;right=0;pointerEvents=1;movable=1;resizable=1;rotatable=1;deletable=1;editable=1;locked=0;" parent="gaqO-L7Gw0ht_7JBLSyh-3" vertex="1">
          <mxGeometry x="242" width="78" height="40" as="geometry">
            <mxRectangle width="78" height="40" as="alternateBounds" />
          </mxGeometry>
        </mxCell>
        <mxCell id="-7uaOYcK-315tPDwTujv-7" value="phone_num" style="shape=partialRectangle;html=1;whiteSpace=wrap;connectable=1;strokeColor=inherit;overflow=hidden;fillColor=none;top=0;left=0;bottom=0;right=0;pointerEvents=1;movable=1;resizable=1;rotatable=1;deletable=1;editable=1;locked=0;" vertex="1" parent="gaqO-L7Gw0ht_7JBLSyh-3">
          <mxGeometry x="320" width="78" height="40" as="geometry">
            <mxRectangle width="78" height="40" as="alternateBounds" />
          </mxGeometry>
        </mxCell>
        <mxCell id="gaqO-L7Gw0ht_7JBLSyh-48" value="" style="endArrow=classic;html=1;rounded=0;exitX=0.323;exitY=1.1;exitDx=0;exitDy=0;exitPerimeter=0;entryX=0.5;entryY=1;entryDx=0;entryDy=0;edgeStyle=orthogonalEdgeStyle;" parent="1" source="gaqO-L7Gw0ht_7JBLSyh-9" target="gaqO-L7Gw0ht_7JBLSyh-4" edge="1">
          <mxGeometry width="50" height="50" relative="1" as="geometry">
            <mxPoint x="390" y="460" as="sourcePoint" />
            <mxPoint x="440" y="410" as="targetPoint" />
            <Array as="points">
              <mxPoint x="209" y="560" />
              <mxPoint x="210" y="590" />
              <mxPoint x="40" y="590" />
              <mxPoint x="40" y="240" />
              <mxPoint x="121" y="240" />
            </Array>
          </mxGeometry>
        </mxCell>
        <mxCell id="gaqO-L7Gw0ht_7JBLSyh-50" value="" style="endArrow=classic;html=1;rounded=0;exitX=0.703;exitY=1.025;exitDx=0;exitDy=0;exitPerimeter=0;entryX=0.129;entryY=0.967;entryDx=0;entryDy=0;entryPerimeter=0;edgeStyle=orthogonalEdgeStyle;" parent="1" source="gaqO-L7Gw0ht_7JBLSyh-34" target="gaqO-L7Gw0ht_7JBLSyh-25" edge="1">
          <mxGeometry width="50" height="50" relative="1" as="geometry">
            <mxPoint x="390" y="460" as="sourcePoint" />
            <mxPoint x="440" y="410" as="targetPoint" />
            <Array as="points">
              <mxPoint x="359" y="441" />
              <mxPoint x="359" y="480" />
              <mxPoint x="550" y="480" />
              <mxPoint x="550" y="360" />
              <mxPoint x="132" y="360" />
              <mxPoint x="132" y="330" />
              <mxPoint x="132" y="330" />
            </Array>
          </mxGeometry>
        </mxCell>
        <mxCell id="gaqO-L7Gw0ht_7JBLSyh-51" value="" style="endArrow=classic;html=1;rounded=0;exitX=0.493;exitY=0.95;exitDx=0;exitDy=0;exitPerimeter=0;entryX=0.75;entryY=1;entryDx=0;entryDy=0;edgeStyle=orthogonalEdgeStyle;" parent="1" source="gaqO-L7Gw0ht_7JBLSyh-18" target="gaqO-L7Gw0ht_7JBLSyh-4" edge="1">
          <mxGeometry width="50" height="50" relative="1" as="geometry">
            <mxPoint x="373.1600000000001" y="640" as="sourcePoint" />
            <mxPoint x="130" y="200" as="targetPoint" />
            <Array as="points">
              <mxPoint x="356" y="921" />
              <mxPoint x="358" y="921" />
              <mxPoint x="358" y="922" />
              <mxPoint x="360" y="922" />
              <mxPoint x="360" y="960" />
              <mxPoint x="800" y="960" />
              <mxPoint x="800" y="220" />
              <mxPoint x="142" y="220" />
            </Array>
          </mxGeometry>
        </mxCell>
        <mxCell id="gaqO-L7Gw0ht_7JBLSyh-52" value="" style="group" parent="1" vertex="1" connectable="0">
          <mxGeometry x="80" y="250" width="320" height="70" as="geometry" />
        </mxCell>
        <mxCell id="gaqO-L7Gw0ht_7JBLSyh-24" value="" style="shape=table;startSize=0;container=1;collapsible=0;childLayout=tableLayout;" parent="gaqO-L7Gw0ht_7JBLSyh-52" vertex="1">
          <mxGeometry y="30" width="400" height="40" as="geometry" />
        </mxCell>
        <mxCell id="gaqO-L7Gw0ht_7JBLSyh-25" value="" style="shape=tableRow;horizontal=0;startSize=0;swimlaneHead=0;swimlaneBody=0;strokeColor=inherit;top=0;left=0;bottom=0;right=0;collapsible=0;dropTarget=0;fillColor=none;points=[[0,0.5],[1,0.5]];portConstraint=eastwest;" parent="gaqO-L7Gw0ht_7JBLSyh-24" vertex="1">
          <mxGeometry width="400" height="40" as="geometry" />
        </mxCell>
        <mxCell id="gaqO-L7Gw0ht_7JBLSyh-26" value="&lt;u&gt;host_id&lt;/u&gt;" style="shape=partialRectangle;html=1;whiteSpace=wrap;connectable=0;strokeColor=inherit;overflow=hidden;fillColor=none;top=0;left=0;bottom=0;right=0;pointerEvents=1;" parent="gaqO-L7Gw0ht_7JBLSyh-25" vertex="1">
          <mxGeometry width="80" height="40" as="geometry">
            <mxRectangle width="80" height="40" as="alternateBounds" />
          </mxGeometry>
        </mxCell>
        <mxCell id="gaqO-L7Gw0ht_7JBLSyh-27" value="password" style="shape=partialRectangle;html=1;whiteSpace=wrap;connectable=0;strokeColor=inherit;overflow=hidden;fillColor=none;top=0;left=0;bottom=0;right=0;pointerEvents=1;" parent="gaqO-L7Gw0ht_7JBLSyh-25" vertex="1">
          <mxGeometry x="80" width="80" height="40" as="geometry">
            <mxRectangle width="80" height="40" as="alternateBounds" />
          </mxGeometry>
        </mxCell>
        <mxCell id="CJ_WXwSslrvgfyCfvaIU-1" value="name" style="shape=partialRectangle;html=1;whiteSpace=wrap;connectable=0;strokeColor=inherit;overflow=hidden;fillColor=none;top=0;left=0;bottom=0;right=0;pointerEvents=1;" vertex="1" parent="gaqO-L7Gw0ht_7JBLSyh-25">
          <mxGeometry x="160" width="80" height="40" as="geometry">
            <mxRectangle width="80" height="40" as="alternateBounds" />
          </mxGeometry>
        </mxCell>
        <mxCell id="gaqO-L7Gw0ht_7JBLSyh-28" value="email" style="shape=partialRectangle;html=1;whiteSpace=wrap;connectable=0;strokeColor=inherit;overflow=hidden;fillColor=none;top=0;left=0;bottom=0;right=0;pointerEvents=1;" parent="gaqO-L7Gw0ht_7JBLSyh-25" vertex="1">
          <mxGeometry x="240" width="80" height="40" as="geometry">
            <mxRectangle width="80" height="40" as="alternateBounds" />
          </mxGeometry>
        </mxCell>
        <mxCell id="gaqO-L7Gw0ht_7JBLSyh-29" value="phone_num" style="shape=partialRectangle;html=1;whiteSpace=wrap;connectable=0;strokeColor=inherit;overflow=hidden;fillColor=none;top=0;left=0;bottom=0;right=0;pointerEvents=1;" parent="gaqO-L7Gw0ht_7JBLSyh-25" vertex="1">
          <mxGeometry x="320" width="80" height="40" as="geometry">
            <mxRectangle width="80" height="40" as="alternateBounds" />
          </mxGeometry>
        </mxCell>
        <mxCell id="gaqO-L7Gw0ht_7JBLSyh-31" value="Host" style="text;html=1;align=center;verticalAlign=middle;resizable=0;points=[];autosize=1;strokeColor=none;fillColor=none;" parent="gaqO-L7Gw0ht_7JBLSyh-52" vertex="1">
          <mxGeometry width="50" height="30" as="geometry" />
        </mxCell>
        <mxCell id="gaqO-L7Gw0ht_7JBLSyh-53" value="" style="group" parent="1" vertex="1" connectable="0">
          <mxGeometry x="80" y="370" width="320" height="70" as="geometry" />
        </mxCell>
        <mxCell id="gaqO-L7Gw0ht_7JBLSyh-33" value="" style="shape=table;startSize=0;container=1;collapsible=0;childLayout=tableLayout;" parent="gaqO-L7Gw0ht_7JBLSyh-53" vertex="1">
          <mxGeometry y="30" width="400" height="40" as="geometry" />
        </mxCell>
        <mxCell id="gaqO-L7Gw0ht_7JBLSyh-34" value="" style="shape=tableRow;horizontal=0;startSize=0;swimlaneHead=0;swimlaneBody=0;strokeColor=inherit;top=0;left=0;bottom=0;right=0;collapsible=0;dropTarget=0;fillColor=none;points=[[0,0.5],[1,0.5]];portConstraint=eastwest;" parent="gaqO-L7Gw0ht_7JBLSyh-33" vertex="1">
          <mxGeometry width="400" height="40" as="geometry" />
        </mxCell>
        <mxCell id="gaqO-L7Gw0ht_7JBLSyh-35" value="&lt;u&gt;room_id&lt;/u&gt;" style="shape=partialRectangle;html=1;whiteSpace=wrap;connectable=0;strokeColor=inherit;overflow=hidden;fillColor=none;top=0;left=0;bottom=0;right=0;pointerEvents=1;" parent="gaqO-L7Gw0ht_7JBLSyh-34" vertex="1">
          <mxGeometry width="80" height="40" as="geometry">
            <mxRectangle width="80" height="40" as="alternateBounds" />
          </mxGeometry>
        </mxCell>
        <mxCell id="gaqO-L7Gw0ht_7JBLSyh-36" value="name" style="shape=partialRectangle;html=1;whiteSpace=wrap;connectable=0;strokeColor=inherit;overflow=hidden;fillColor=none;top=0;left=0;bottom=0;right=0;pointerEvents=1;" parent="gaqO-L7Gw0ht_7JBLSyh-34" vertex="1">
          <mxGeometry x="80" width="80" height="40" as="geometry">
            <mxRectangle width="80" height="40" as="alternateBounds" />
          </mxGeometry>
        </mxCell>
        <mxCell id="gaqO-L7Gw0ht_7JBLSyh-37" value="location" style="shape=partialRectangle;html=1;whiteSpace=wrap;connectable=0;strokeColor=inherit;overflow=hidden;fillColor=none;top=0;left=0;bottom=0;right=0;pointerEvents=1;" parent="gaqO-L7Gw0ht_7JBLSyh-34" vertex="1">
          <mxGeometry x="160" width="80" height="40" as="geometry">
            <mxRectangle width="80" height="40" as="alternateBounds" />
          </mxGeometry>
        </mxCell>
        <mxCell id="gaqO-L7Gw0ht_7JBLSyh-49" value="host_id" style="shape=partialRectangle;html=1;whiteSpace=wrap;connectable=0;strokeColor=inherit;overflow=hidden;fillColor=none;top=0;left=0;bottom=0;right=0;pointerEvents=1;" parent="gaqO-L7Gw0ht_7JBLSyh-34" vertex="1">
          <mxGeometry x="240" width="80" height="40" as="geometry">
            <mxRectangle width="80" height="40" as="alternateBounds" />
          </mxGeometry>
        </mxCell>
        <mxCell id="jHQNiur8GB_TsnBE-gTJ-1" value="option" style="shape=partialRectangle;html=1;whiteSpace=wrap;connectable=0;strokeColor=inherit;overflow=hidden;fillColor=none;top=0;left=0;bottom=0;right=0;pointerEvents=1;" parent="gaqO-L7Gw0ht_7JBLSyh-34" vertex="1">
          <mxGeometry x="320" width="80" height="40" as="geometry">
            <mxRectangle width="80" height="40" as="alternateBounds" />
          </mxGeometry>
        </mxCell>
        <mxCell id="gaqO-L7Gw0ht_7JBLSyh-39" value="Room" style="text;html=1;align=center;verticalAlign=middle;resizable=0;points=[];autosize=1;strokeColor=none;fillColor=none;" parent="gaqO-L7Gw0ht_7JBLSyh-53" vertex="1">
          <mxGeometry width="60" height="30" as="geometry" />
        </mxCell>
        <mxCell id="gaqO-L7Gw0ht_7JBLSyh-54" value="" style="group" parent="1" vertex="1" connectable="0">
          <mxGeometry x="70" y="490" width="320" height="70" as="geometry" />
        </mxCell>
        <mxCell id="gaqO-L7Gw0ht_7JBLSyh-8" value="" style="shape=table;startSize=0;container=1;collapsible=0;childLayout=tableLayout;" parent="gaqO-L7Gw0ht_7JBLSyh-54" vertex="1">
          <mxGeometry x="10" y="30" width="400" height="40" as="geometry" />
        </mxCell>
        <mxCell id="gaqO-L7Gw0ht_7JBLSyh-9" value="" style="shape=tableRow;horizontal=0;startSize=0;swimlaneHead=0;swimlaneBody=0;strokeColor=inherit;top=0;left=0;bottom=0;right=0;collapsible=0;dropTarget=0;fillColor=none;points=[[0,0.5],[1,0.5]];portConstraint=eastwest;" parent="gaqO-L7Gw0ht_7JBLSyh-8" vertex="1">
          <mxGeometry width="400" height="40" as="geometry" />
        </mxCell>
        <mxCell id="gaqO-L7Gw0ht_7JBLSyh-10" value="&lt;u&gt;review_id&lt;/u&gt;" style="shape=partialRectangle;html=1;whiteSpace=wrap;connectable=0;strokeColor=inherit;overflow=hidden;fillColor=none;top=0;left=0;bottom=0;right=0;pointerEvents=1;" parent="gaqO-L7Gw0ht_7JBLSyh-9" vertex="1">
          <mxGeometry width="80" height="40" as="geometry">
            <mxRectangle width="80" height="40" as="alternateBounds" />
          </mxGeometry>
        </mxCell>
        <mxCell id="gaqO-L7Gw0ht_7JBLSyh-11" value="user_id" style="shape=partialRectangle;html=1;whiteSpace=wrap;connectable=0;strokeColor=inherit;overflow=hidden;fillColor=none;top=0;left=0;bottom=0;right=0;pointerEvents=1;" parent="gaqO-L7Gw0ht_7JBLSyh-9" vertex="1">
          <mxGeometry x="80" width="80" height="40" as="geometry">
            <mxRectangle width="80" height="40" as="alternateBounds" />
          </mxGeometry>
        </mxCell>
        <mxCell id="gaqO-L7Gw0ht_7JBLSyh-12" value="room_id" style="shape=partialRectangle;html=1;whiteSpace=wrap;connectable=0;strokeColor=inherit;overflow=hidden;fillColor=none;top=0;left=0;bottom=0;right=0;pointerEvents=1;" parent="gaqO-L7Gw0ht_7JBLSyh-9" vertex="1">
          <mxGeometry x="160" width="80" height="40" as="geometry">
            <mxRectangle width="80" height="40" as="alternateBounds" />
          </mxGeometry>
        </mxCell>
        <mxCell id="gaqO-L7Gw0ht_7JBLSyh-13" value="content" style="shape=partialRectangle;html=1;whiteSpace=wrap;connectable=0;strokeColor=inherit;overflow=hidden;fillColor=none;top=0;left=0;bottom=0;right=0;pointerEvents=1;" parent="gaqO-L7Gw0ht_7JBLSyh-9" vertex="1">
          <mxGeometry x="240" width="80" height="40" as="geometry">
            <mxRectangle width="80" height="40" as="alternateBounds" />
          </mxGeometry>
        </mxCell>
        <mxCell id="DUMhhRBaqqffrN1PPG7V-17" value="date" style="shape=partialRectangle;html=1;whiteSpace=wrap;connectable=0;strokeColor=inherit;overflow=hidden;fillColor=none;top=0;left=0;bottom=0;right=0;pointerEvents=1;" parent="gaqO-L7Gw0ht_7JBLSyh-9" vertex="1">
          <mxGeometry x="320" width="80" height="40" as="geometry">
            <mxRectangle width="80" height="40" as="alternateBounds" />
          </mxGeometry>
        </mxCell>
        <mxCell id="gaqO-L7Gw0ht_7JBLSyh-15" value="Review" style="text;html=1;align=center;verticalAlign=middle;resizable=0;points=[];autosize=1;strokeColor=none;fillColor=none;" parent="gaqO-L7Gw0ht_7JBLSyh-54" vertex="1">
          <mxGeometry width="60" height="30" as="geometry" />
        </mxCell>
        <mxCell id="gaqO-L7Gw0ht_7JBLSyh-55" value="" style="group" parent="1" vertex="1" connectable="0">
          <mxGeometry x="80" y="850" width="320" height="70" as="geometry" />
        </mxCell>
        <mxCell id="gaqO-L7Gw0ht_7JBLSyh-17" value="" style="shape=table;startSize=0;container=1;collapsible=0;childLayout=tableLayout;" parent="gaqO-L7Gw0ht_7JBLSyh-55" vertex="1">
          <mxGeometry y="30" width="560" height="40" as="geometry" />
        </mxCell>
        <mxCell id="gaqO-L7Gw0ht_7JBLSyh-18" value="" style="shape=tableRow;horizontal=0;startSize=0;swimlaneHead=0;swimlaneBody=0;strokeColor=inherit;top=0;left=0;bottom=0;right=0;collapsible=0;dropTarget=0;fillColor=none;points=[[0,0.5],[1,0.5]];portConstraint=eastwest;" parent="gaqO-L7Gw0ht_7JBLSyh-17" vertex="1">
          <mxGeometry width="560" height="40" as="geometry" />
        </mxCell>
        <mxCell id="gaqO-L7Gw0ht_7JBLSyh-19" value="&lt;u&gt;bill_id&lt;/u&gt;" style="shape=partialRectangle;html=1;whiteSpace=wrap;connectable=0;strokeColor=inherit;overflow=hidden;fillColor=none;top=0;left=0;bottom=0;right=0;pointerEvents=1;" parent="gaqO-L7Gw0ht_7JBLSyh-18" vertex="1">
          <mxGeometry width="80" height="40" as="geometry">
            <mxRectangle width="80" height="40" as="alternateBounds" />
          </mxGeometry>
        </mxCell>
        <mxCell id="gaqO-L7Gw0ht_7JBLSyh-20" value="date" style="shape=partialRectangle;html=1;whiteSpace=wrap;connectable=0;strokeColor=inherit;overflow=hidden;fillColor=none;top=0;left=0;bottom=0;right=0;pointerEvents=1;" parent="gaqO-L7Gw0ht_7JBLSyh-18" vertex="1">
          <mxGeometry x="80" width="80" height="40" as="geometry">
            <mxRectangle width="80" height="40" as="alternateBounds" />
          </mxGeometry>
        </mxCell>
        <mxCell id="gaqO-L7Gw0ht_7JBLSyh-21" value="price" style="shape=partialRectangle;html=1;whiteSpace=wrap;connectable=0;strokeColor=inherit;overflow=hidden;fillColor=none;top=0;left=0;bottom=0;right=0;pointerEvents=1;" parent="gaqO-L7Gw0ht_7JBLSyh-18" vertex="1">
          <mxGeometry x="160" width="80" height="40" as="geometry">
            <mxRectangle width="80" height="40" as="alternateBounds" />
          </mxGeometry>
        </mxCell>
        <mxCell id="gaqO-L7Gw0ht_7JBLSyh-22" value="user_id" style="shape=partialRectangle;html=1;whiteSpace=wrap;connectable=0;strokeColor=inherit;overflow=hidden;fillColor=none;top=0;left=0;bottom=0;right=0;pointerEvents=1;" parent="gaqO-L7Gw0ht_7JBLSyh-18" vertex="1">
          <mxGeometry x="240" width="80" height="40" as="geometry">
            <mxRectangle width="80" height="40" as="alternateBounds" />
          </mxGeometry>
        </mxCell>
        <mxCell id="dHgtSoudui7Wur6cNzfF-2" value="contract_id" style="shape=partialRectangle;html=1;whiteSpace=wrap;connectable=0;strokeColor=inherit;overflow=hidden;fillColor=none;top=0;left=0;bottom=0;right=0;pointerEvents=1;" parent="gaqO-L7Gw0ht_7JBLSyh-18" vertex="1">
          <mxGeometry x="320" width="80" height="40" as="geometry">
            <mxRectangle width="80" height="40" as="alternateBounds" />
          </mxGeometry>
        </mxCell>
        <mxCell id="6AwJdIBKc8sY0i4y6bnV-1" value="status" style="shape=partialRectangle;html=1;whiteSpace=wrap;connectable=0;strokeColor=inherit;overflow=hidden;fillColor=none;top=0;left=0;bottom=0;right=0;pointerEvents=1;" parent="gaqO-L7Gw0ht_7JBLSyh-18" vertex="1">
          <mxGeometry x="400" width="80" height="40" as="geometry">
            <mxRectangle width="80" height="40" as="alternateBounds" />
          </mxGeometry>
        </mxCell>
        <mxCell id="itiW1TFMozy6BDM8Zhzs-1" value="pay_method" style="shape=partialRectangle;html=1;whiteSpace=wrap;connectable=0;strokeColor=inherit;overflow=hidden;fillColor=none;top=0;left=0;bottom=0;right=0;pointerEvents=1;" parent="gaqO-L7Gw0ht_7JBLSyh-18" vertex="1">
          <mxGeometry x="480" width="80" height="40" as="geometry">
            <mxRectangle width="80" height="40" as="alternateBounds" />
          </mxGeometry>
        </mxCell>
        <mxCell id="gaqO-L7Gw0ht_7JBLSyh-23" value="Bill" style="text;html=1;align=center;verticalAlign=middle;resizable=0;points=[];autosize=1;strokeColor=none;fillColor=none;" parent="gaqO-L7Gw0ht_7JBLSyh-55" vertex="1">
          <mxGeometry width="40" height="30" as="geometry" />
        </mxCell>
        <mxCell id="gaqO-L7Gw0ht_7JBLSyh-56" value="" style="group" parent="1" vertex="1" connectable="0">
          <mxGeometry x="80" y="610" width="400" height="70" as="geometry" />
        </mxCell>
        <mxCell id="gaqO-L7Gw0ht_7JBLSyh-40" value="" style="shape=table;startSize=0;container=1;collapsible=0;childLayout=tableLayout;" parent="gaqO-L7Gw0ht_7JBLSyh-56" vertex="1">
          <mxGeometry y="30" width="640" height="40" as="geometry" />
        </mxCell>
        <mxCell id="gaqO-L7Gw0ht_7JBLSyh-41" value="" style="shape=tableRow;horizontal=0;startSize=0;swimlaneHead=0;swimlaneBody=0;strokeColor=inherit;top=0;left=0;bottom=0;right=0;collapsible=0;dropTarget=0;fillColor=none;points=[[0,0.5],[1,0.5]];portConstraint=eastwest;" parent="gaqO-L7Gw0ht_7JBLSyh-40" vertex="1">
          <mxGeometry width="640" height="40" as="geometry" />
        </mxCell>
        <mxCell id="DUMhhRBaqqffrN1PPG7V-7" value="&lt;u&gt;contract_id&lt;/u&gt;" style="shape=partialRectangle;html=1;whiteSpace=wrap;connectable=0;strokeColor=inherit;overflow=hidden;fillColor=none;top=0;left=0;bottom=0;right=0;pointerEvents=1;" parent="gaqO-L7Gw0ht_7JBLSyh-41" vertex="1">
          <mxGeometry width="80" height="40" as="geometry">
            <mxRectangle width="80" height="40" as="alternateBounds" />
          </mxGeometry>
        </mxCell>
        <mxCell id="gaqO-L7Gw0ht_7JBLSyh-42" value="user_id" style="shape=partialRectangle;html=1;whiteSpace=wrap;connectable=0;strokeColor=inherit;overflow=hidden;fillColor=none;top=0;left=0;bottom=0;right=0;pointerEvents=1;" parent="gaqO-L7Gw0ht_7JBLSyh-41" vertex="1">
          <mxGeometry x="80" width="80" height="40" as="geometry">
            <mxRectangle width="80" height="40" as="alternateBounds" />
          </mxGeometry>
        </mxCell>
        <mxCell id="gaqO-L7Gw0ht_7JBLSyh-43" value="room_id" style="shape=partialRectangle;html=1;whiteSpace=wrap;connectable=0;strokeColor=inherit;overflow=hidden;fillColor=none;top=0;left=0;bottom=0;right=0;pointerEvents=1;" parent="gaqO-L7Gw0ht_7JBLSyh-41" vertex="1">
          <mxGeometry x="160" width="80" height="40" as="geometry">
            <mxRectangle width="80" height="40" as="alternateBounds" />
          </mxGeometry>
        </mxCell>
        <mxCell id="gaqO-L7Gw0ht_7JBLSyh-44" value="contract_date" style="shape=partialRectangle;html=1;whiteSpace=wrap;connectable=0;strokeColor=inherit;overflow=hidden;fillColor=none;top=0;left=0;bottom=0;right=0;pointerEvents=1;" parent="gaqO-L7Gw0ht_7JBLSyh-41" vertex="1">
          <mxGeometry x="240" width="80" height="40" as="geometry">
            <mxRectangle width="80" height="40" as="alternateBounds" />
          </mxGeometry>
        </mxCell>
        <mxCell id="gaqO-L7Gw0ht_7JBLSyh-45" value="price" style="shape=partialRectangle;html=1;whiteSpace=wrap;connectable=0;strokeColor=inherit;overflow=hidden;fillColor=none;top=0;left=0;bottom=0;right=0;pointerEvents=1;" parent="gaqO-L7Gw0ht_7JBLSyh-41" vertex="1">
          <mxGeometry x="320" width="80" height="40" as="geometry">
            <mxRectangle width="80" height="40" as="alternateBounds" />
          </mxGeometry>
        </mxCell>
        <mxCell id="gaqO-L7Gw0ht_7JBLSyh-46" value="duration" style="shape=partialRectangle;html=1;whiteSpace=wrap;connectable=0;strokeColor=inherit;overflow=hidden;fillColor=none;top=0;left=0;bottom=0;right=0;pointerEvents=1;" parent="gaqO-L7Gw0ht_7JBLSyh-41" vertex="1">
          <mxGeometry x="400" width="80" height="40" as="geometry">
            <mxRectangle width="80" height="40" as="alternateBounds" />
          </mxGeometry>
        </mxCell>
        <mxCell id="Kib2ab1NRfUOrXDjKTX--1" value="start_time" style="shape=partialRectangle;html=1;whiteSpace=wrap;connectable=0;strokeColor=inherit;overflow=hidden;fillColor=none;top=0;left=0;bottom=0;right=0;pointerEvents=1;" parent="gaqO-L7Gw0ht_7JBLSyh-41" vertex="1">
          <mxGeometry x="480" width="80" height="40" as="geometry">
            <mxRectangle width="80" height="40" as="alternateBounds" />
          </mxGeometry>
        </mxCell>
        <mxCell id="Kib2ab1NRfUOrXDjKTX--2" value="end_time" style="shape=partialRectangle;html=1;whiteSpace=wrap;connectable=0;strokeColor=inherit;overflow=hidden;fillColor=none;top=0;left=0;bottom=0;right=0;pointerEvents=1;" parent="gaqO-L7Gw0ht_7JBLSyh-41" vertex="1">
          <mxGeometry x="560" width="80" height="40" as="geometry">
            <mxRectangle width="80" height="40" as="alternateBounds" />
          </mxGeometry>
        </mxCell>
        <mxCell id="gaqO-L7Gw0ht_7JBLSyh-47" value="Contract" style="text;html=1;align=center;verticalAlign=middle;resizable=0;points=[];autosize=1;strokeColor=none;fillColor=none;" parent="gaqO-L7Gw0ht_7JBLSyh-56" vertex="1">
          <mxGeometry width="70" height="30" as="geometry" />
        </mxCell>
        <mxCell id="gaqO-L7Gw0ht_7JBLSyh-57" value="" style="endArrow=classic;html=1;rounded=0;edgeStyle=orthogonalEdgeStyle;entryX=0.148;entryY=0.969;entryDx=0;entryDy=0;entryPerimeter=0;" parent="1" edge="1" target="gaqO-L7Gw0ht_7JBLSyh-34">
          <mxGeometry width="50" height="50" relative="1" as="geometry">
            <mxPoint x="280" y="682" as="sourcePoint" />
            <mxPoint x="140" y="320" as="targetPoint" />
            <Array as="points">
              <mxPoint x="280" y="720" />
              <mxPoint x="770" y="720" />
              <mxPoint x="770" y="490" />
              <mxPoint x="140" y="490" />
              <mxPoint x="140" y="439" />
            </Array>
          </mxGeometry>
        </mxCell>
        <mxCell id="gaqO-L7Gw0ht_7JBLSyh-58" value="" style="endArrow=classic;html=1;rounded=0;entryX=0.25;entryY=1;entryDx=0;entryDy=0;edgeStyle=orthogonalEdgeStyle;" parent="1" target="gaqO-L7Gw0ht_7JBLSyh-4" edge="1">
          <mxGeometry width="50" height="50" relative="1" as="geometry">
            <mxPoint x="200" y="680" as="sourcePoint" />
            <mxPoint x="170" y="710" as="targetPoint" />
            <Array as="points">
              <mxPoint x="200" y="720" />
              <mxPoint x="20" y="720" />
              <mxPoint x="20" y="230" />
              <mxPoint x="100" y="230" />
            </Array>
          </mxGeometry>
        </mxCell>
        <mxCell id="DUMhhRBaqqffrN1PPG7V-8" value="" style="shape=table;startSize=0;container=1;collapsible=0;childLayout=tableLayout;" parent="1" vertex="1">
          <mxGeometry x="80" y="760" width="400" height="40" as="geometry" />
        </mxCell>
        <mxCell id="DUMhhRBaqqffrN1PPG7V-9" value="" style="shape=tableRow;horizontal=0;startSize=0;swimlaneHead=0;swimlaneBody=0;strokeColor=inherit;top=0;left=0;bottom=0;right=0;collapsible=0;dropTarget=0;fillColor=none;points=[[0,0.5],[1,0.5]];portConstraint=eastwest;" parent="DUMhhRBaqqffrN1PPG7V-8" vertex="1">
          <mxGeometry width="400" height="40" as="geometry" />
        </mxCell>
        <mxCell id="DUMhhRBaqqffrN1PPG7V-10" value="&lt;u&gt;message_id&lt;/u&gt;" style="shape=partialRectangle;html=1;whiteSpace=wrap;connectable=0;strokeColor=inherit;overflow=hidden;fillColor=none;top=0;left=0;bottom=0;right=0;pointerEvents=1;" parent="DUMhhRBaqqffrN1PPG7V-9" vertex="1">
          <mxGeometry width="80" height="40" as="geometry">
            <mxRectangle width="80" height="40" as="alternateBounds" />
          </mxGeometry>
        </mxCell>
        <mxCell id="DUMhhRBaqqffrN1PPG7V-11" value="host_id" style="shape=partialRectangle;html=1;whiteSpace=wrap;connectable=0;strokeColor=inherit;overflow=hidden;fillColor=none;top=0;left=0;bottom=0;right=0;pointerEvents=1;" parent="DUMhhRBaqqffrN1PPG7V-9" vertex="1">
          <mxGeometry x="80" width="80" height="40" as="geometry">
            <mxRectangle width="80" height="40" as="alternateBounds" />
          </mxGeometry>
        </mxCell>
        <mxCell id="DUMhhRBaqqffrN1PPG7V-12" value="user_id" style="shape=partialRectangle;html=1;whiteSpace=wrap;connectable=0;strokeColor=inherit;overflow=hidden;fillColor=none;top=0;left=0;bottom=0;right=0;pointerEvents=1;" parent="DUMhhRBaqqffrN1PPG7V-9" vertex="1">
          <mxGeometry x="160" width="80" height="40" as="geometry">
            <mxRectangle width="80" height="40" as="alternateBounds" />
          </mxGeometry>
        </mxCell>
        <mxCell id="DUMhhRBaqqffrN1PPG7V-15" value="content" style="shape=partialRectangle;html=1;whiteSpace=wrap;connectable=0;strokeColor=inherit;overflow=hidden;fillColor=none;top=0;left=0;bottom=0;right=0;pointerEvents=1;" parent="DUMhhRBaqqffrN1PPG7V-9" vertex="1">
          <mxGeometry x="240" width="80" height="40" as="geometry">
            <mxRectangle width="80" height="40" as="alternateBounds" />
          </mxGeometry>
        </mxCell>
        <mxCell id="DlrqF3q14zH44-R-EaZI-1" value="message_time" style="shape=partialRectangle;html=1;whiteSpace=wrap;connectable=0;strokeColor=inherit;overflow=hidden;fillColor=none;top=0;left=0;bottom=0;right=0;pointerEvents=1;" parent="DUMhhRBaqqffrN1PPG7V-9" vertex="1">
          <mxGeometry x="320" width="80" height="40" as="geometry">
            <mxRectangle width="80" height="40" as="alternateBounds" />
          </mxGeometry>
        </mxCell>
        <mxCell id="DUMhhRBaqqffrN1PPG7V-13" value="Message" style="text;html=1;align=center;verticalAlign=middle;resizable=0;points=[];autosize=1;strokeColor=none;fillColor=none;" parent="1" vertex="1">
          <mxGeometry x="80" y="730" width="70" height="30" as="geometry" />
        </mxCell>
        <mxCell id="DUMhhRBaqqffrN1PPG7V-18" value="" style="endArrow=classic;html=1;rounded=0;exitX=0.499;exitY=1.005;exitDx=0;exitDy=0;exitPerimeter=0;entryX=0.098;entryY=1.025;entryDx=0;entryDy=0;entryPerimeter=0;edgeStyle=orthogonalEdgeStyle;" parent="1" source="gaqO-L7Gw0ht_7JBLSyh-8" target="gaqO-L7Gw0ht_7JBLSyh-34" edge="1">
          <mxGeometry width="50" height="50" relative="1" as="geometry">
            <mxPoint x="380" y="640" as="sourcePoint" />
            <mxPoint x="430" y="590" as="targetPoint" />
            <Array as="points">
              <mxPoint x="280" y="565" />
              <mxPoint x="280" y="565" />
              <mxPoint x="280" y="580" />
              <mxPoint x="70" y="580" />
              <mxPoint x="70" y="460" />
              <mxPoint x="119" y="460" />
            </Array>
          </mxGeometry>
        </mxCell>
        <mxCell id="DUMhhRBaqqffrN1PPG7V-24" value="" style="endArrow=classic;html=1;rounded=0;exitX=0.622;exitY=1;exitDx=0;exitDy=0;exitPerimeter=0;entryX=0.116;entryY=0.932;entryDx=0;entryDy=0;entryPerimeter=0;edgeStyle=orthogonalEdgeStyle;" parent="1" source="DUMhhRBaqqffrN1PPG7V-9" target="gaqO-L7Gw0ht_7JBLSyh-4" edge="1">
          <mxGeometry width="50" height="50" relative="1" as="geometry">
            <mxPoint x="-10" y="1040" as="sourcePoint" />
            <mxPoint x="40" y="990" as="targetPoint" />
            <Array as="points">
              <mxPoint x="279" y="830" />
              <mxPoint x="-20" y="830" />
              <mxPoint x="-20" y="220" />
              <mxPoint x="90" y="220" />
            </Array>
          </mxGeometry>
        </mxCell>
        <mxCell id="dHgtSoudui7Wur6cNzfF-1" value="" style="endArrow=classic;html=1;rounded=0;exitX=0.285;exitY=1.05;exitDx=0;exitDy=0;exitPerimeter=0;entryX=0.025;entryY=1.058;entryDx=0;entryDy=0;entryPerimeter=0;edgeStyle=orthogonalEdgeStyle;" parent="1" source="DUMhhRBaqqffrN1PPG7V-9" target="gaqO-L7Gw0ht_7JBLSyh-25" edge="1">
          <mxGeometry width="50" height="50" relative="1" as="geometry">
            <mxPoint x="320" y="610" as="sourcePoint" />
            <mxPoint x="350" y="850" as="targetPoint" />
            <Array as="points">
              <mxPoint x="196" y="802" />
              <mxPoint x="196" y="820" />
              <mxPoint y="820" />
              <mxPoint y="350" />
              <mxPoint x="90" y="350" />
            </Array>
          </mxGeometry>
        </mxCell>
        <mxCell id="dHgtSoudui7Wur6cNzfF-3" value="" style="endArrow=classic;html=1;rounded=0;entryX=0.041;entryY=1.1;entryDx=0;entryDy=0;entryPerimeter=0;edgeStyle=orthogonalEdgeStyle;" parent="1" target="gaqO-L7Gw0ht_7JBLSyh-41" edge="1">
          <mxGeometry width="50" height="50" relative="1" as="geometry">
            <mxPoint x="442" y="921" as="sourcePoint" />
            <mxPoint x="370" y="560" as="targetPoint" />
            <Array as="points">
              <mxPoint x="442" y="940" />
              <mxPoint x="40" y="940" />
              <mxPoint x="40" y="700" />
              <mxPoint x="106" y="700" />
            </Array>
          </mxGeometry>
        </mxCell>
      </root>
    </mxGraphModel>
  </diagram>
  <diagram id="gsir8qc7nH6Crk0DXr5t" name="relation_2">
    <mxGraphModel dx="1373" dy="455" grid="1" gridSize="10" guides="1" tooltips="1" connect="1" arrows="1" fold="1" page="1" pageScale="1" pageWidth="827" pageHeight="1169" math="0" shadow="0">
      <root>
        <mxCell id="0" />
        <mxCell id="1" parent="0" />
        <mxCell id="dns1gtdnvqpb-mwx62JQ-1" value="" style="group" vertex="1" connectable="0" parent="1">
          <mxGeometry x="80" y="130" width="320" height="70" as="geometry" />
        </mxCell>
        <mxCell id="dns1gtdnvqpb-mwx62JQ-2" value="User" style="text;html=1;align=center;verticalAlign=middle;resizable=1;points=[];autosize=1;strokeColor=none;fillColor=none;movable=1;rotatable=1;deletable=1;editable=1;locked=0;connectable=1;" vertex="1" parent="dns1gtdnvqpb-mwx62JQ-1">
          <mxGeometry width="50" height="30" as="geometry" />
        </mxCell>
        <mxCell id="dns1gtdnvqpb-mwx62JQ-3" value="" style="shape=table;startSize=0;container=1;collapsible=0;childLayout=tableLayout;movable=1;resizable=1;rotatable=1;deletable=1;editable=1;locked=0;connectable=1;" vertex="1" parent="dns1gtdnvqpb-mwx62JQ-1">
          <mxGeometry y="30" width="398" height="40" as="geometry" />
        </mxCell>
        <mxCell id="dns1gtdnvqpb-mwx62JQ-4" value="" style="shape=tableRow;horizontal=0;startSize=0;swimlaneHead=0;swimlaneBody=0;strokeColor=inherit;top=0;left=0;bottom=0;right=0;collapsible=0;dropTarget=0;fillColor=none;points=[[0,0.5],[1,0.5]];portConstraint=eastwest;movable=1;resizable=1;rotatable=1;deletable=1;editable=1;locked=0;connectable=1;" vertex="1" parent="dns1gtdnvqpb-mwx62JQ-3">
          <mxGeometry width="398" height="40" as="geometry" />
        </mxCell>
        <mxCell id="dns1gtdnvqpb-mwx62JQ-5" value="&lt;u&gt;user_id&lt;/u&gt;" style="shape=partialRectangle;html=1;whiteSpace=wrap;connectable=1;strokeColor=inherit;overflow=hidden;fillColor=none;top=0;left=0;bottom=0;right=0;pointerEvents=1;movable=1;resizable=1;rotatable=1;deletable=1;editable=1;locked=0;" vertex="1" parent="dns1gtdnvqpb-mwx62JQ-4">
          <mxGeometry width="82" height="40" as="geometry">
            <mxRectangle width="82" height="40" as="alternateBounds" />
          </mxGeometry>
        </mxCell>
        <mxCell id="dns1gtdnvqpb-mwx62JQ-6" value="password" style="shape=partialRectangle;html=1;whiteSpace=wrap;connectable=1;strokeColor=inherit;overflow=hidden;fillColor=none;top=0;left=0;bottom=0;right=0;pointerEvents=1;movable=1;resizable=1;rotatable=1;deletable=1;editable=1;locked=0;" vertex="1" parent="dns1gtdnvqpb-mwx62JQ-4">
          <mxGeometry x="82" width="78" height="40" as="geometry">
            <mxRectangle width="78" height="40" as="alternateBounds" />
          </mxGeometry>
        </mxCell>
        <mxCell id="dns1gtdnvqpb-mwx62JQ-7" value="name" style="shape=partialRectangle;html=1;whiteSpace=wrap;connectable=1;strokeColor=inherit;overflow=hidden;fillColor=none;top=0;left=0;bottom=0;right=0;pointerEvents=1;movable=1;resizable=1;rotatable=1;deletable=1;editable=1;locked=0;" vertex="1" parent="dns1gtdnvqpb-mwx62JQ-4">
          <mxGeometry x="160" width="82" height="40" as="geometry">
            <mxRectangle width="82" height="40" as="alternateBounds" />
          </mxGeometry>
        </mxCell>
        <mxCell id="dns1gtdnvqpb-mwx62JQ-8" value="email" style="shape=partialRectangle;html=1;whiteSpace=wrap;connectable=1;strokeColor=inherit;overflow=hidden;fillColor=none;top=0;left=0;bottom=0;right=0;pointerEvents=1;movable=1;resizable=1;rotatable=1;deletable=1;editable=1;locked=0;" vertex="1" parent="dns1gtdnvqpb-mwx62JQ-4">
          <mxGeometry x="242" width="78" height="40" as="geometry">
            <mxRectangle width="78" height="40" as="alternateBounds" />
          </mxGeometry>
        </mxCell>
        <mxCell id="dns1gtdnvqpb-mwx62JQ-9" value="phone_num" style="shape=partialRectangle;html=1;whiteSpace=wrap;connectable=1;strokeColor=inherit;overflow=hidden;fillColor=none;top=0;left=0;bottom=0;right=0;pointerEvents=1;movable=1;resizable=1;rotatable=1;deletable=1;editable=1;locked=0;" vertex="1" parent="dns1gtdnvqpb-mwx62JQ-4">
          <mxGeometry x="320" width="78" height="40" as="geometry">
            <mxRectangle width="78" height="40" as="alternateBounds" />
          </mxGeometry>
        </mxCell>
        <mxCell id="dns1gtdnvqpb-mwx62JQ-10" value="" style="endArrow=classic;html=1;rounded=0;exitX=0.323;exitY=1.1;exitDx=0;exitDy=0;exitPerimeter=0;entryX=0.5;entryY=1;entryDx=0;entryDy=0;edgeStyle=orthogonalEdgeStyle;" edge="1" parent="1" source="dns1gtdnvqpb-mwx62JQ-33" target="dns1gtdnvqpb-mwx62JQ-5">
          <mxGeometry width="50" height="50" relative="1" as="geometry">
            <mxPoint x="390" y="460" as="sourcePoint" />
            <mxPoint x="440" y="410" as="targetPoint" />
            <Array as="points">
              <mxPoint x="209" y="560" />
              <mxPoint x="210" y="590" />
              <mxPoint x="40" y="590" />
              <mxPoint x="40" y="240" />
              <mxPoint x="121" y="240" />
            </Array>
          </mxGeometry>
        </mxCell>
        <mxCell id="dns1gtdnvqpb-mwx62JQ-11" value="" style="endArrow=classic;html=1;rounded=0;exitX=0.703;exitY=1.025;exitDx=0;exitDy=0;exitPerimeter=0;entryX=0.129;entryY=0.967;entryDx=0;entryDy=0;entryPerimeter=0;edgeStyle=orthogonalEdgeStyle;" edge="1" parent="1" source="dns1gtdnvqpb-mwx62JQ-24" target="dns1gtdnvqpb-mwx62JQ-15">
          <mxGeometry width="50" height="50" relative="1" as="geometry">
            <mxPoint x="390" y="460" as="sourcePoint" />
            <mxPoint x="440" y="410" as="targetPoint" />
            <Array as="points">
              <mxPoint x="359" y="441" />
              <mxPoint x="359" y="480" />
              <mxPoint x="550" y="480" />
              <mxPoint x="550" y="360" />
              <mxPoint x="132" y="360" />
              <mxPoint x="132" y="330" />
              <mxPoint x="132" y="330" />
            </Array>
          </mxGeometry>
        </mxCell>
        <mxCell id="dns1gtdnvqpb-mwx62JQ-12" value="" style="endArrow=classic;html=1;rounded=0;exitX=0.493;exitY=0.95;exitDx=0;exitDy=0;exitPerimeter=0;entryX=0.75;entryY=1;entryDx=0;entryDy=0;edgeStyle=orthogonalEdgeStyle;" edge="1" parent="1" source="dns1gtdnvqpb-mwx62JQ-42" target="dns1gtdnvqpb-mwx62JQ-5">
          <mxGeometry width="50" height="50" relative="1" as="geometry">
            <mxPoint x="373.1600000000001" y="640" as="sourcePoint" />
            <mxPoint x="130" y="200" as="targetPoint" />
            <Array as="points">
              <mxPoint x="356" y="921" />
              <mxPoint x="358" y="921" />
              <mxPoint x="358" y="922" />
              <mxPoint x="360" y="922" />
              <mxPoint x="360" y="960" />
              <mxPoint x="800" y="960" />
              <mxPoint x="800" y="220" />
              <mxPoint x="142" y="220" />
            </Array>
          </mxGeometry>
        </mxCell>
        <mxCell id="dns1gtdnvqpb-mwx62JQ-13" value="" style="group" vertex="1" connectable="0" parent="1">
          <mxGeometry x="80" y="250" width="320" height="70" as="geometry" />
        </mxCell>
        <mxCell id="dns1gtdnvqpb-mwx62JQ-14" value="" style="shape=table;startSize=0;container=1;collapsible=0;childLayout=tableLayout;" vertex="1" parent="dns1gtdnvqpb-mwx62JQ-13">
          <mxGeometry y="30" width="400" height="40" as="geometry" />
        </mxCell>
        <mxCell id="dns1gtdnvqpb-mwx62JQ-15" value="" style="shape=tableRow;horizontal=0;startSize=0;swimlaneHead=0;swimlaneBody=0;strokeColor=inherit;top=0;left=0;bottom=0;right=0;collapsible=0;dropTarget=0;fillColor=none;points=[[0,0.5],[1,0.5]];portConstraint=eastwest;" vertex="1" parent="dns1gtdnvqpb-mwx62JQ-14">
          <mxGeometry width="400" height="40" as="geometry" />
        </mxCell>
        <mxCell id="dns1gtdnvqpb-mwx62JQ-16" value="&lt;u&gt;host_id&lt;/u&gt;" style="shape=partialRectangle;html=1;whiteSpace=wrap;connectable=0;strokeColor=inherit;overflow=hidden;fillColor=none;top=0;left=0;bottom=0;right=0;pointerEvents=1;" vertex="1" parent="dns1gtdnvqpb-mwx62JQ-15">
          <mxGeometry width="80" height="40" as="geometry">
            <mxRectangle width="80" height="40" as="alternateBounds" />
          </mxGeometry>
        </mxCell>
        <mxCell id="dns1gtdnvqpb-mwx62JQ-17" value="password" style="shape=partialRectangle;html=1;whiteSpace=wrap;connectable=0;strokeColor=inherit;overflow=hidden;fillColor=none;top=0;left=0;bottom=0;right=0;pointerEvents=1;" vertex="1" parent="dns1gtdnvqpb-mwx62JQ-15">
          <mxGeometry x="80" width="80" height="40" as="geometry">
            <mxRectangle width="80" height="40" as="alternateBounds" />
          </mxGeometry>
        </mxCell>
        <mxCell id="dns1gtdnvqpb-mwx62JQ-18" value="name" style="shape=partialRectangle;html=1;whiteSpace=wrap;connectable=0;strokeColor=inherit;overflow=hidden;fillColor=none;top=0;left=0;bottom=0;right=0;pointerEvents=1;" vertex="1" parent="dns1gtdnvqpb-mwx62JQ-15">
          <mxGeometry x="160" width="80" height="40" as="geometry">
            <mxRectangle width="80" height="40" as="alternateBounds" />
          </mxGeometry>
        </mxCell>
        <mxCell id="dns1gtdnvqpb-mwx62JQ-19" value="email" style="shape=partialRectangle;html=1;whiteSpace=wrap;connectable=0;strokeColor=inherit;overflow=hidden;fillColor=none;top=0;left=0;bottom=0;right=0;pointerEvents=1;" vertex="1" parent="dns1gtdnvqpb-mwx62JQ-15">
          <mxGeometry x="240" width="80" height="40" as="geometry">
            <mxRectangle width="80" height="40" as="alternateBounds" />
          </mxGeometry>
        </mxCell>
        <mxCell id="dns1gtdnvqpb-mwx62JQ-20" value="phone_num" style="shape=partialRectangle;html=1;whiteSpace=wrap;connectable=0;strokeColor=inherit;overflow=hidden;fillColor=none;top=0;left=0;bottom=0;right=0;pointerEvents=1;" vertex="1" parent="dns1gtdnvqpb-mwx62JQ-15">
          <mxGeometry x="320" width="80" height="40" as="geometry">
            <mxRectangle width="80" height="40" as="alternateBounds" />
          </mxGeometry>
        </mxCell>
        <mxCell id="dns1gtdnvqpb-mwx62JQ-21" value="Host" style="text;html=1;align=center;verticalAlign=middle;resizable=0;points=[];autosize=1;strokeColor=none;fillColor=none;" vertex="1" parent="dns1gtdnvqpb-mwx62JQ-13">
          <mxGeometry width="50" height="30" as="geometry" />
        </mxCell>
        <mxCell id="dns1gtdnvqpb-mwx62JQ-22" value="" style="group" vertex="1" connectable="0" parent="1">
          <mxGeometry x="80" y="370" width="320" height="70" as="geometry" />
        </mxCell>
        <mxCell id="dns1gtdnvqpb-mwx62JQ-23" value="" style="shape=table;startSize=0;container=1;collapsible=0;childLayout=tableLayout;" vertex="1" parent="dns1gtdnvqpb-mwx62JQ-22">
          <mxGeometry y="30" width="560" height="40" as="geometry" />
        </mxCell>
        <mxCell id="dns1gtdnvqpb-mwx62JQ-24" value="" style="shape=tableRow;horizontal=0;startSize=0;swimlaneHead=0;swimlaneBody=0;strokeColor=inherit;top=0;left=0;bottom=0;right=0;collapsible=0;dropTarget=0;fillColor=none;points=[[0,0.5],[1,0.5]];portConstraint=eastwest;" vertex="1" parent="dns1gtdnvqpb-mwx62JQ-23">
          <mxGeometry width="560" height="40" as="geometry" />
        </mxCell>
        <mxCell id="dns1gtdnvqpb-mwx62JQ-25" value="&lt;u&gt;room_id&lt;/u&gt;" style="shape=partialRectangle;html=1;whiteSpace=wrap;connectable=0;strokeColor=inherit;overflow=hidden;fillColor=none;top=0;left=0;bottom=0;right=0;pointerEvents=1;" vertex="1" parent="dns1gtdnvqpb-mwx62JQ-24">
          <mxGeometry width="80" height="40" as="geometry">
            <mxRectangle width="80" height="40" as="alternateBounds" />
          </mxGeometry>
        </mxCell>
        <mxCell id="dns1gtdnvqpb-mwx62JQ-26" value="name" style="shape=partialRectangle;html=1;whiteSpace=wrap;connectable=0;strokeColor=inherit;overflow=hidden;fillColor=none;top=0;left=0;bottom=0;right=0;pointerEvents=1;" vertex="1" parent="dns1gtdnvqpb-mwx62JQ-24">
          <mxGeometry x="80" width="80" height="40" as="geometry">
            <mxRectangle width="80" height="40" as="alternateBounds" />
          </mxGeometry>
        </mxCell>
        <mxCell id="dns1gtdnvqpb-mwx62JQ-27" value="location" style="shape=partialRectangle;html=1;whiteSpace=wrap;connectable=0;strokeColor=inherit;overflow=hidden;fillColor=none;top=0;left=0;bottom=0;right=0;pointerEvents=1;" vertex="1" parent="dns1gtdnvqpb-mwx62JQ-24">
          <mxGeometry x="160" width="80" height="40" as="geometry">
            <mxRectangle width="80" height="40" as="alternateBounds" />
          </mxGeometry>
        </mxCell>
        <mxCell id="dns1gtdnvqpb-mwx62JQ-28" value="host_id" style="shape=partialRectangle;html=1;whiteSpace=wrap;connectable=0;strokeColor=inherit;overflow=hidden;fillColor=none;top=0;left=0;bottom=0;right=0;pointerEvents=1;" vertex="1" parent="dns1gtdnvqpb-mwx62JQ-24">
          <mxGeometry x="240" width="80" height="40" as="geometry">
            <mxRectangle width="80" height="40" as="alternateBounds" />
          </mxGeometry>
        </mxCell>
        <mxCell id="dns1gtdnvqpb-mwx62JQ-29" value="room_size" style="shape=partialRectangle;html=1;whiteSpace=wrap;connectable=0;strokeColor=inherit;overflow=hidden;fillColor=none;top=0;left=0;bottom=0;right=0;pointerEvents=1;" vertex="1" parent="dns1gtdnvqpb-mwx62JQ-24">
          <mxGeometry x="320" width="80" height="40" as="geometry">
            <mxRectangle width="80" height="40" as="alternateBounds" />
          </mxGeometry>
        </mxCell>
        <mxCell id="dns1gtdnvqpb-mwx62JQ-77" value="room_price" style="shape=partialRectangle;html=1;whiteSpace=wrap;connectable=0;strokeColor=inherit;overflow=hidden;fillColor=none;top=0;left=0;bottom=0;right=0;pointerEvents=1;" vertex="1" parent="dns1gtdnvqpb-mwx62JQ-24">
          <mxGeometry x="400" width="80" height="40" as="geometry">
            <mxRectangle width="80" height="40" as="alternateBounds" />
          </mxGeometry>
        </mxCell>
        <mxCell id="dns1gtdnvqpb-mwx62JQ-78" value="room_shape" style="shape=partialRectangle;html=1;whiteSpace=wrap;connectable=0;strokeColor=inherit;overflow=hidden;fillColor=none;top=0;left=0;bottom=0;right=0;pointerEvents=1;" vertex="1" parent="dns1gtdnvqpb-mwx62JQ-24">
          <mxGeometry x="480" width="80" height="40" as="geometry">
            <mxRectangle width="80" height="40" as="alternateBounds" />
          </mxGeometry>
        </mxCell>
        <mxCell id="dns1gtdnvqpb-mwx62JQ-30" value="Room" style="text;html=1;align=center;verticalAlign=middle;resizable=0;points=[];autosize=1;strokeColor=none;fillColor=none;" vertex="1" parent="dns1gtdnvqpb-mwx62JQ-22">
          <mxGeometry width="60" height="30" as="geometry" />
        </mxCell>
        <mxCell id="dns1gtdnvqpb-mwx62JQ-31" value="" style="group" vertex="1" connectable="0" parent="1">
          <mxGeometry x="70" y="490" width="320" height="70" as="geometry" />
        </mxCell>
        <mxCell id="dns1gtdnvqpb-mwx62JQ-32" value="" style="shape=table;startSize=0;container=1;collapsible=0;childLayout=tableLayout;" vertex="1" parent="dns1gtdnvqpb-mwx62JQ-31">
          <mxGeometry x="10" y="30" width="400" height="40" as="geometry" />
        </mxCell>
        <mxCell id="dns1gtdnvqpb-mwx62JQ-33" value="" style="shape=tableRow;horizontal=0;startSize=0;swimlaneHead=0;swimlaneBody=0;strokeColor=inherit;top=0;left=0;bottom=0;right=0;collapsible=0;dropTarget=0;fillColor=none;points=[[0,0.5],[1,0.5]];portConstraint=eastwest;" vertex="1" parent="dns1gtdnvqpb-mwx62JQ-32">
          <mxGeometry width="400" height="40" as="geometry" />
        </mxCell>
        <mxCell id="dns1gtdnvqpb-mwx62JQ-34" value="&lt;u&gt;review_id&lt;/u&gt;" style="shape=partialRectangle;html=1;whiteSpace=wrap;connectable=0;strokeColor=inherit;overflow=hidden;fillColor=none;top=0;left=0;bottom=0;right=0;pointerEvents=1;" vertex="1" parent="dns1gtdnvqpb-mwx62JQ-33">
          <mxGeometry width="80" height="40" as="geometry">
            <mxRectangle width="80" height="40" as="alternateBounds" />
          </mxGeometry>
        </mxCell>
        <mxCell id="dns1gtdnvqpb-mwx62JQ-35" value="user_id" style="shape=partialRectangle;html=1;whiteSpace=wrap;connectable=0;strokeColor=inherit;overflow=hidden;fillColor=none;top=0;left=0;bottom=0;right=0;pointerEvents=1;" vertex="1" parent="dns1gtdnvqpb-mwx62JQ-33">
          <mxGeometry x="80" width="80" height="40" as="geometry">
            <mxRectangle width="80" height="40" as="alternateBounds" />
          </mxGeometry>
        </mxCell>
        <mxCell id="dns1gtdnvqpb-mwx62JQ-36" value="room_id" style="shape=partialRectangle;html=1;whiteSpace=wrap;connectable=0;strokeColor=inherit;overflow=hidden;fillColor=none;top=0;left=0;bottom=0;right=0;pointerEvents=1;" vertex="1" parent="dns1gtdnvqpb-mwx62JQ-33">
          <mxGeometry x="160" width="80" height="40" as="geometry">
            <mxRectangle width="80" height="40" as="alternateBounds" />
          </mxGeometry>
        </mxCell>
        <mxCell id="dns1gtdnvqpb-mwx62JQ-37" value="content" style="shape=partialRectangle;html=1;whiteSpace=wrap;connectable=0;strokeColor=inherit;overflow=hidden;fillColor=none;top=0;left=0;bottom=0;right=0;pointerEvents=1;" vertex="1" parent="dns1gtdnvqpb-mwx62JQ-33">
          <mxGeometry x="240" width="80" height="40" as="geometry">
            <mxRectangle width="80" height="40" as="alternateBounds" />
          </mxGeometry>
        </mxCell>
        <mxCell id="dns1gtdnvqpb-mwx62JQ-38" value="date" style="shape=partialRectangle;html=1;whiteSpace=wrap;connectable=0;strokeColor=inherit;overflow=hidden;fillColor=none;top=0;left=0;bottom=0;right=0;pointerEvents=1;" vertex="1" parent="dns1gtdnvqpb-mwx62JQ-33">
          <mxGeometry x="320" width="80" height="40" as="geometry">
            <mxRectangle width="80" height="40" as="alternateBounds" />
          </mxGeometry>
        </mxCell>
        <mxCell id="dns1gtdnvqpb-mwx62JQ-39" value="Review" style="text;html=1;align=center;verticalAlign=middle;resizable=0;points=[];autosize=1;strokeColor=none;fillColor=none;" vertex="1" parent="dns1gtdnvqpb-mwx62JQ-31">
          <mxGeometry width="60" height="30" as="geometry" />
        </mxCell>
        <mxCell id="dns1gtdnvqpb-mwx62JQ-40" value="" style="group" vertex="1" connectable="0" parent="1">
          <mxGeometry x="80" y="850" width="320" height="70" as="geometry" />
        </mxCell>
        <mxCell id="dns1gtdnvqpb-mwx62JQ-41" value="" style="shape=table;startSize=0;container=1;collapsible=0;childLayout=tableLayout;" vertex="1" parent="dns1gtdnvqpb-mwx62JQ-40">
          <mxGeometry y="30" width="560" height="40" as="geometry" />
        </mxCell>
        <mxCell id="dns1gtdnvqpb-mwx62JQ-42" value="" style="shape=tableRow;horizontal=0;startSize=0;swimlaneHead=0;swimlaneBody=0;strokeColor=inherit;top=0;left=0;bottom=0;right=0;collapsible=0;dropTarget=0;fillColor=none;points=[[0,0.5],[1,0.5]];portConstraint=eastwest;" vertex="1" parent="dns1gtdnvqpb-mwx62JQ-41">
          <mxGeometry width="560" height="40" as="geometry" />
        </mxCell>
        <mxCell id="dns1gtdnvqpb-mwx62JQ-43" value="&lt;u&gt;bill_id&lt;/u&gt;" style="shape=partialRectangle;html=1;whiteSpace=wrap;connectable=0;strokeColor=inherit;overflow=hidden;fillColor=none;top=0;left=0;bottom=0;right=0;pointerEvents=1;" vertex="1" parent="dns1gtdnvqpb-mwx62JQ-42">
          <mxGeometry width="80" height="40" as="geometry">
            <mxRectangle width="80" height="40" as="alternateBounds" />
          </mxGeometry>
        </mxCell>
        <mxCell id="dns1gtdnvqpb-mwx62JQ-44" value="date" style="shape=partialRectangle;html=1;whiteSpace=wrap;connectable=0;strokeColor=inherit;overflow=hidden;fillColor=none;top=0;left=0;bottom=0;right=0;pointerEvents=1;" vertex="1" parent="dns1gtdnvqpb-mwx62JQ-42">
          <mxGeometry x="80" width="80" height="40" as="geometry">
            <mxRectangle width="80" height="40" as="alternateBounds" />
          </mxGeometry>
        </mxCell>
        <mxCell id="dns1gtdnvqpb-mwx62JQ-45" value="price" style="shape=partialRectangle;html=1;whiteSpace=wrap;connectable=0;strokeColor=inherit;overflow=hidden;fillColor=none;top=0;left=0;bottom=0;right=0;pointerEvents=1;" vertex="1" parent="dns1gtdnvqpb-mwx62JQ-42">
          <mxGeometry x="160" width="80" height="40" as="geometry">
            <mxRectangle width="80" height="40" as="alternateBounds" />
          </mxGeometry>
        </mxCell>
        <mxCell id="dns1gtdnvqpb-mwx62JQ-46" value="user_id" style="shape=partialRectangle;html=1;whiteSpace=wrap;connectable=0;strokeColor=inherit;overflow=hidden;fillColor=none;top=0;left=0;bottom=0;right=0;pointerEvents=1;" vertex="1" parent="dns1gtdnvqpb-mwx62JQ-42">
          <mxGeometry x="240" width="80" height="40" as="geometry">
            <mxRectangle width="80" height="40" as="alternateBounds" />
          </mxGeometry>
        </mxCell>
        <mxCell id="dns1gtdnvqpb-mwx62JQ-47" value="contract_id" style="shape=partialRectangle;html=1;whiteSpace=wrap;connectable=0;strokeColor=inherit;overflow=hidden;fillColor=none;top=0;left=0;bottom=0;right=0;pointerEvents=1;" vertex="1" parent="dns1gtdnvqpb-mwx62JQ-42">
          <mxGeometry x="320" width="80" height="40" as="geometry">
            <mxRectangle width="80" height="40" as="alternateBounds" />
          </mxGeometry>
        </mxCell>
        <mxCell id="dns1gtdnvqpb-mwx62JQ-48" value="status" style="shape=partialRectangle;html=1;whiteSpace=wrap;connectable=0;strokeColor=inherit;overflow=hidden;fillColor=none;top=0;left=0;bottom=0;right=0;pointerEvents=1;" vertex="1" parent="dns1gtdnvqpb-mwx62JQ-42">
          <mxGeometry x="400" width="80" height="40" as="geometry">
            <mxRectangle width="80" height="40" as="alternateBounds" />
          </mxGeometry>
        </mxCell>
        <mxCell id="dns1gtdnvqpb-mwx62JQ-49" value="pay_method" style="shape=partialRectangle;html=1;whiteSpace=wrap;connectable=0;strokeColor=inherit;overflow=hidden;fillColor=none;top=0;left=0;bottom=0;right=0;pointerEvents=1;" vertex="1" parent="dns1gtdnvqpb-mwx62JQ-42">
          <mxGeometry x="480" width="80" height="40" as="geometry">
            <mxRectangle width="80" height="40" as="alternateBounds" />
          </mxGeometry>
        </mxCell>
        <mxCell id="dns1gtdnvqpb-mwx62JQ-50" value="Bill" style="text;html=1;align=center;verticalAlign=middle;resizable=0;points=[];autosize=1;strokeColor=none;fillColor=none;" vertex="1" parent="dns1gtdnvqpb-mwx62JQ-40">
          <mxGeometry width="40" height="30" as="geometry" />
        </mxCell>
        <mxCell id="dns1gtdnvqpb-mwx62JQ-51" value="" style="group" vertex="1" connectable="0" parent="1">
          <mxGeometry x="80" y="610" width="400" height="70" as="geometry" />
        </mxCell>
        <mxCell id="dns1gtdnvqpb-mwx62JQ-52" value="" style="shape=table;startSize=0;container=1;collapsible=0;childLayout=tableLayout;" vertex="1" parent="dns1gtdnvqpb-mwx62JQ-51">
          <mxGeometry y="30" width="640" height="40" as="geometry" />
        </mxCell>
        <mxCell id="dns1gtdnvqpb-mwx62JQ-53" value="" style="shape=tableRow;horizontal=0;startSize=0;swimlaneHead=0;swimlaneBody=0;strokeColor=inherit;top=0;left=0;bottom=0;right=0;collapsible=0;dropTarget=0;fillColor=none;points=[[0,0.5],[1,0.5]];portConstraint=eastwest;" vertex="1" parent="dns1gtdnvqpb-mwx62JQ-52">
          <mxGeometry width="640" height="40" as="geometry" />
        </mxCell>
        <mxCell id="dns1gtdnvqpb-mwx62JQ-54" value="&lt;u&gt;contract_id&lt;/u&gt;" style="shape=partialRectangle;html=1;whiteSpace=wrap;connectable=0;strokeColor=inherit;overflow=hidden;fillColor=none;top=0;left=0;bottom=0;right=0;pointerEvents=1;" vertex="1" parent="dns1gtdnvqpb-mwx62JQ-53">
          <mxGeometry width="80" height="40" as="geometry">
            <mxRectangle width="80" height="40" as="alternateBounds" />
          </mxGeometry>
        </mxCell>
        <mxCell id="dns1gtdnvqpb-mwx62JQ-55" value="user_id" style="shape=partialRectangle;html=1;whiteSpace=wrap;connectable=0;strokeColor=inherit;overflow=hidden;fillColor=none;top=0;left=0;bottom=0;right=0;pointerEvents=1;" vertex="1" parent="dns1gtdnvqpb-mwx62JQ-53">
          <mxGeometry x="80" width="80" height="40" as="geometry">
            <mxRectangle width="80" height="40" as="alternateBounds" />
          </mxGeometry>
        </mxCell>
        <mxCell id="dns1gtdnvqpb-mwx62JQ-56" value="room_id" style="shape=partialRectangle;html=1;whiteSpace=wrap;connectable=0;strokeColor=inherit;overflow=hidden;fillColor=none;top=0;left=0;bottom=0;right=0;pointerEvents=1;" vertex="1" parent="dns1gtdnvqpb-mwx62JQ-53">
          <mxGeometry x="160" width="80" height="40" as="geometry">
            <mxRectangle width="80" height="40" as="alternateBounds" />
          </mxGeometry>
        </mxCell>
        <mxCell id="dns1gtdnvqpb-mwx62JQ-57" value="contract_date" style="shape=partialRectangle;html=1;whiteSpace=wrap;connectable=0;strokeColor=inherit;overflow=hidden;fillColor=none;top=0;left=0;bottom=0;right=0;pointerEvents=1;" vertex="1" parent="dns1gtdnvqpb-mwx62JQ-53">
          <mxGeometry x="240" width="80" height="40" as="geometry">
            <mxRectangle width="80" height="40" as="alternateBounds" />
          </mxGeometry>
        </mxCell>
        <mxCell id="dns1gtdnvqpb-mwx62JQ-58" value="price" style="shape=partialRectangle;html=1;whiteSpace=wrap;connectable=0;strokeColor=inherit;overflow=hidden;fillColor=none;top=0;left=0;bottom=0;right=0;pointerEvents=1;" vertex="1" parent="dns1gtdnvqpb-mwx62JQ-53">
          <mxGeometry x="320" width="80" height="40" as="geometry">
            <mxRectangle width="80" height="40" as="alternateBounds" />
          </mxGeometry>
        </mxCell>
        <mxCell id="dns1gtdnvqpb-mwx62JQ-59" value="duration" style="shape=partialRectangle;html=1;whiteSpace=wrap;connectable=0;strokeColor=inherit;overflow=hidden;fillColor=none;top=0;left=0;bottom=0;right=0;pointerEvents=1;" vertex="1" parent="dns1gtdnvqpb-mwx62JQ-53">
          <mxGeometry x="400" width="80" height="40" as="geometry">
            <mxRectangle width="80" height="40" as="alternateBounds" />
          </mxGeometry>
        </mxCell>
        <mxCell id="dns1gtdnvqpb-mwx62JQ-60" value="start_time" style="shape=partialRectangle;html=1;whiteSpace=wrap;connectable=0;strokeColor=inherit;overflow=hidden;fillColor=none;top=0;left=0;bottom=0;right=0;pointerEvents=1;" vertex="1" parent="dns1gtdnvqpb-mwx62JQ-53">
          <mxGeometry x="480" width="80" height="40" as="geometry">
            <mxRectangle width="80" height="40" as="alternateBounds" />
          </mxGeometry>
        </mxCell>
        <mxCell id="dns1gtdnvqpb-mwx62JQ-61" value="end_time" style="shape=partialRectangle;html=1;whiteSpace=wrap;connectable=0;strokeColor=inherit;overflow=hidden;fillColor=none;top=0;left=0;bottom=0;right=0;pointerEvents=1;" vertex="1" parent="dns1gtdnvqpb-mwx62JQ-53">
          <mxGeometry x="560" width="80" height="40" as="geometry">
            <mxRectangle width="80" height="40" as="alternateBounds" />
          </mxGeometry>
        </mxCell>
        <mxCell id="dns1gtdnvqpb-mwx62JQ-62" value="Contract" style="text;html=1;align=center;verticalAlign=middle;resizable=0;points=[];autosize=1;strokeColor=none;fillColor=none;" vertex="1" parent="dns1gtdnvqpb-mwx62JQ-51">
          <mxGeometry width="70" height="30" as="geometry" />
        </mxCell>
        <mxCell id="dns1gtdnvqpb-mwx62JQ-63" value="" style="endArrow=classic;html=1;rounded=0;edgeStyle=orthogonalEdgeStyle;entryX=0.119;entryY=1.005;entryDx=0;entryDy=0;entryPerimeter=0;" edge="1" parent="1" target="dns1gtdnvqpb-mwx62JQ-24">
          <mxGeometry width="50" height="50" relative="1" as="geometry">
            <mxPoint x="280" y="682" as="sourcePoint" />
            <mxPoint x="140" y="320" as="targetPoint" />
            <Array as="points">
              <mxPoint x="280" y="720" />
              <mxPoint x="770" y="720" />
              <mxPoint x="770" y="490" />
              <mxPoint x="147" y="490" />
              <mxPoint x="147" y="450" />
              <mxPoint x="147" y="450" />
            </Array>
          </mxGeometry>
        </mxCell>
        <mxCell id="dns1gtdnvqpb-mwx62JQ-64" value="" style="endArrow=classic;html=1;rounded=0;entryX=0.25;entryY=1;entryDx=0;entryDy=0;edgeStyle=orthogonalEdgeStyle;" edge="1" parent="1" target="dns1gtdnvqpb-mwx62JQ-5">
          <mxGeometry width="50" height="50" relative="1" as="geometry">
            <mxPoint x="200" y="680" as="sourcePoint" />
            <mxPoint x="170" y="710" as="targetPoint" />
            <Array as="points">
              <mxPoint x="200" y="720" />
              <mxPoint x="20" y="720" />
              <mxPoint x="20" y="230" />
              <mxPoint x="100" y="230" />
            </Array>
          </mxGeometry>
        </mxCell>
        <mxCell id="dns1gtdnvqpb-mwx62JQ-65" value="" style="shape=table;startSize=0;container=1;collapsible=0;childLayout=tableLayout;" vertex="1" parent="1">
          <mxGeometry x="80" y="760" width="400" height="40" as="geometry" />
        </mxCell>
        <mxCell id="dns1gtdnvqpb-mwx62JQ-66" value="" style="shape=tableRow;horizontal=0;startSize=0;swimlaneHead=0;swimlaneBody=0;strokeColor=inherit;top=0;left=0;bottom=0;right=0;collapsible=0;dropTarget=0;fillColor=none;points=[[0,0.5],[1,0.5]];portConstraint=eastwest;" vertex="1" parent="dns1gtdnvqpb-mwx62JQ-65">
          <mxGeometry width="400" height="40" as="geometry" />
        </mxCell>
        <mxCell id="dns1gtdnvqpb-mwx62JQ-67" value="&lt;u&gt;message_id&lt;/u&gt;" style="shape=partialRectangle;html=1;whiteSpace=wrap;connectable=0;strokeColor=inherit;overflow=hidden;fillColor=none;top=0;left=0;bottom=0;right=0;pointerEvents=1;" vertex="1" parent="dns1gtdnvqpb-mwx62JQ-66">
          <mxGeometry width="80" height="40" as="geometry">
            <mxRectangle width="80" height="40" as="alternateBounds" />
          </mxGeometry>
        </mxCell>
        <mxCell id="dns1gtdnvqpb-mwx62JQ-68" value="host_id" style="shape=partialRectangle;html=1;whiteSpace=wrap;connectable=0;strokeColor=inherit;overflow=hidden;fillColor=none;top=0;left=0;bottom=0;right=0;pointerEvents=1;" vertex="1" parent="dns1gtdnvqpb-mwx62JQ-66">
          <mxGeometry x="80" width="80" height="40" as="geometry">
            <mxRectangle width="80" height="40" as="alternateBounds" />
          </mxGeometry>
        </mxCell>
        <mxCell id="dns1gtdnvqpb-mwx62JQ-69" value="user_id" style="shape=partialRectangle;html=1;whiteSpace=wrap;connectable=0;strokeColor=inherit;overflow=hidden;fillColor=none;top=0;left=0;bottom=0;right=0;pointerEvents=1;" vertex="1" parent="dns1gtdnvqpb-mwx62JQ-66">
          <mxGeometry x="160" width="80" height="40" as="geometry">
            <mxRectangle width="80" height="40" as="alternateBounds" />
          </mxGeometry>
        </mxCell>
        <mxCell id="dns1gtdnvqpb-mwx62JQ-70" value="content" style="shape=partialRectangle;html=1;whiteSpace=wrap;connectable=0;strokeColor=inherit;overflow=hidden;fillColor=none;top=0;left=0;bottom=0;right=0;pointerEvents=1;" vertex="1" parent="dns1gtdnvqpb-mwx62JQ-66">
          <mxGeometry x="240" width="80" height="40" as="geometry">
            <mxRectangle width="80" height="40" as="alternateBounds" />
          </mxGeometry>
        </mxCell>
        <mxCell id="dns1gtdnvqpb-mwx62JQ-71" value="message_time" style="shape=partialRectangle;html=1;whiteSpace=wrap;connectable=0;strokeColor=inherit;overflow=hidden;fillColor=none;top=0;left=0;bottom=0;right=0;pointerEvents=1;" vertex="1" parent="dns1gtdnvqpb-mwx62JQ-66">
          <mxGeometry x="320" width="80" height="40" as="geometry">
            <mxRectangle width="80" height="40" as="alternateBounds" />
          </mxGeometry>
        </mxCell>
        <mxCell id="dns1gtdnvqpb-mwx62JQ-72" value="Message" style="text;html=1;align=center;verticalAlign=middle;resizable=0;points=[];autosize=1;strokeColor=none;fillColor=none;" vertex="1" parent="1">
          <mxGeometry x="80" y="730" width="70" height="30" as="geometry" />
        </mxCell>
        <mxCell id="dns1gtdnvqpb-mwx62JQ-73" value="" style="endArrow=classic;html=1;rounded=0;exitX=0.499;exitY=1.005;exitDx=0;exitDy=0;exitPerimeter=0;edgeStyle=orthogonalEdgeStyle;" edge="1" parent="1" source="dns1gtdnvqpb-mwx62JQ-32">
          <mxGeometry width="50" height="50" relative="1" as="geometry">
            <mxPoint x="380" y="640" as="sourcePoint" />
            <mxPoint x="110" y="440" as="targetPoint" />
            <Array as="points">
              <mxPoint x="280" y="565" />
              <mxPoint x="280" y="565" />
              <mxPoint x="280" y="580" />
              <mxPoint x="70" y="580" />
              <mxPoint x="70" y="470" />
              <mxPoint x="110" y="470" />
              <mxPoint x="110" y="440" />
            </Array>
          </mxGeometry>
        </mxCell>
        <mxCell id="dns1gtdnvqpb-mwx62JQ-74" value="" style="endArrow=classic;html=1;rounded=0;exitX=0.622;exitY=1;exitDx=0;exitDy=0;exitPerimeter=0;entryX=0.116;entryY=0.932;entryDx=0;entryDy=0;entryPerimeter=0;edgeStyle=orthogonalEdgeStyle;" edge="1" parent="1" source="dns1gtdnvqpb-mwx62JQ-66" target="dns1gtdnvqpb-mwx62JQ-5">
          <mxGeometry width="50" height="50" relative="1" as="geometry">
            <mxPoint x="-10" y="1040" as="sourcePoint" />
            <mxPoint x="40" y="990" as="targetPoint" />
            <Array as="points">
              <mxPoint x="279" y="830" />
              <mxPoint x="-20" y="830" />
              <mxPoint x="-20" y="220" />
              <mxPoint x="90" y="220" />
            </Array>
          </mxGeometry>
        </mxCell>
        <mxCell id="dns1gtdnvqpb-mwx62JQ-75" value="" style="endArrow=classic;html=1;rounded=0;exitX=0.285;exitY=1.05;exitDx=0;exitDy=0;exitPerimeter=0;entryX=0.025;entryY=1.058;entryDx=0;entryDy=0;entryPerimeter=0;edgeStyle=orthogonalEdgeStyle;" edge="1" parent="1" source="dns1gtdnvqpb-mwx62JQ-66" target="dns1gtdnvqpb-mwx62JQ-15">
          <mxGeometry width="50" height="50" relative="1" as="geometry">
            <mxPoint x="320" y="610" as="sourcePoint" />
            <mxPoint x="350" y="850" as="targetPoint" />
            <Array as="points">
              <mxPoint x="196" y="802" />
              <mxPoint x="196" y="820" />
              <mxPoint y="820" />
              <mxPoint y="350" />
              <mxPoint x="90" y="350" />
            </Array>
          </mxGeometry>
        </mxCell>
        <mxCell id="dns1gtdnvqpb-mwx62JQ-76" value="" style="endArrow=classic;html=1;rounded=0;entryX=0.041;entryY=1.1;entryDx=0;entryDy=0;entryPerimeter=0;edgeStyle=orthogonalEdgeStyle;" edge="1" parent="1" target="dns1gtdnvqpb-mwx62JQ-53">
          <mxGeometry width="50" height="50" relative="1" as="geometry">
            <mxPoint x="442" y="921" as="sourcePoint" />
            <mxPoint x="370" y="560" as="targetPoint" />
            <Array as="points">
              <mxPoint x="442" y="940" />
              <mxPoint x="40" y="940" />
              <mxPoint x="40" y="700" />
              <mxPoint x="106" y="700" />
            </Array>
          </mxGeometry>
        </mxCell>
      </root>
    </mxGraphModel>
  </diagram>
</mxfile>
